<svg width="415" height="415" viewBox="0 0 415 415" fill="none" xmlns="http://www.w3.org/2000/svg">
<rect width="375" height="375" transform="translate(20 20)" fill="white"/>
<g opacity="0.5" filter="url(#filter0_fn_24131_1370)">
<ellipse cx="206.995" cy="207.5" rx="87.4227" ry="158.883" fill="#DBDBF0"/>
</g>
<path d="M170.8 93.6665H233.121V281.333H170.8V93.6665Z" fill="white"/>
<g filter="url(#filter1_f_24131_1370)">
<path d="M170.798 281.333L233.21 281.334L270.879 322.425H139.875L170.798 281.333Z" fill="url(#paint0_linear_24131_1370)"/>
</g>
<g opacity="0.7" filter="url(#filter2_f_24131_1370)" style="mix-blend-mode:plus-darker">
<path d="M196.073 318.613C193.286 338.125 173.922 350.663 165.336 349.437C156.75 348.21 160.221 335.749 163.008 316.237C165.795 296.724 176.985 279.835 185.572 281.062C194.158 282.288 198.859 299.1 196.073 318.613Z" fill="url(#paint1_linear_24131_1370)" fill-opacity="0.3"/>
</g>
<g clip-path="url(#clip0_24131_1370)">
<g filter="url(#filter3_n_24131_1370)">
<path d="M167.156 248.351C167.385 244 167.5 241.825 167.962 240.707C169.65 236.625 174.627 235.076 178.333 237.48C179.348 238.138 180.677 239.864 183.335 243.316C183.876 244.019 184.147 244.37 184.445 244.674C185.478 245.726 186.815 246.429 188.269 246.683C188.687 246.756 189.13 246.779 190.017 246.826C194.367 247.055 196.542 247.17 197.66 247.632C201.742 249.32 203.291 254.297 200.888 258.003C200.23 259.018 198.504 260.347 195.052 263.004C194.349 263.546 193.997 263.816 193.694 264.114C192.641 265.148 191.939 266.485 191.685 267.938C191.612 268.357 191.588 268.8 191.542 269.686C191.312 274.037 191.198 276.212 190.735 277.33C189.048 281.412 184.07 282.961 180.365 280.558C179.35 279.899 178.021 278.173 175.363 274.721C174.822 274.018 174.551 273.667 174.253 273.363C173.22 272.311 171.882 271.608 170.429 271.355C170.01 271.282 169.567 271.258 168.681 271.211C164.331 270.982 162.156 270.867 161.037 270.405C156.956 268.718 155.407 263.74 157.81 260.034C158.468 259.019 160.194 257.69 163.646 255.033C164.349 254.491 164.701 254.221 165.004 253.923C166.057 252.889 166.759 251.552 167.013 250.099C167.086 249.68 167.109 249.237 167.156 248.351Z" fill="white"/>
<path d="M167.156 248.351C167.385 244 167.5 241.825 167.962 240.707C169.65 236.625 174.627 235.076 178.333 237.48C179.348 238.138 180.677 239.864 183.335 243.316C183.876 244.019 184.147 244.37 184.445 244.674C185.478 245.726 186.815 246.429 188.269 246.683C188.687 246.756 189.13 246.779 190.017 246.826C194.367 247.055 196.542 247.17 197.66 247.632C201.742 249.32 203.291 254.297 200.888 258.003C200.23 259.018 198.504 260.347 195.052 263.004C194.349 263.546 193.997 263.816 193.694 264.114C192.641 265.148 191.939 266.485 191.685 267.938C191.612 268.357 191.588 268.8 191.542 269.686C191.312 274.037 191.198 276.212 190.735 277.33C189.048 281.412 184.07 282.961 180.365 280.558C179.35 279.899 178.021 278.173 175.363 274.721C174.822 274.018 174.551 273.667 174.253 273.363C173.22 272.311 171.882 271.608 170.429 271.355C170.01 271.282 169.567 271.258 168.681 271.211C164.331 270.982 162.156 270.867 161.037 270.405C156.956 268.718 155.407 263.74 157.81 260.034C158.468 259.019 160.194 257.69 163.646 255.033C164.349 254.491 164.701 254.221 165.004 253.923C166.057 252.889 166.759 251.552 167.013 250.099C167.086 249.68 167.109 249.237 167.156 248.351Z" fill="url(#paint2_linear_24131_1370)"/>
</g>
<g opacity="0.4">
<g opacity="0.6" filter="url(#filter4_n_24131_1370)">
<path d="M182.681 168.828C183.7 167.854 184.209 167.367 184.589 167.258C185.375 167.032 186.205 167.437 186.512 168.195C186.661 168.561 186.591 169.262 186.452 170.665C186.424 170.95 186.409 171.093 186.419 171.23C186.44 171.508 186.532 171.775 186.687 172.006C186.764 172.12 186.863 172.224 187.061 172.431C188.035 173.45 188.522 173.959 188.631 174.339C188.857 175.125 188.453 175.955 187.694 176.263C187.328 176.411 186.627 176.341 185.224 176.202C184.939 176.174 184.796 176.16 184.659 176.17C184.382 176.19 184.114 176.282 183.883 176.437C183.769 176.514 183.665 176.613 183.458 176.811C182.439 177.786 181.93 178.273 181.55 178.381C180.764 178.607 179.934 178.203 179.627 177.444C179.478 177.078 179.548 176.377 179.687 174.974C179.715 174.689 179.73 174.546 179.72 174.409C179.699 174.132 179.607 173.864 179.452 173.633C179.375 173.519 179.276 173.415 179.078 173.208C178.104 172.189 177.617 171.68 177.508 171.301C177.282 170.514 177.686 169.684 178.445 169.377C178.811 169.229 179.512 169.298 180.915 169.437C181.2 169.466 181.343 169.48 181.48 169.47C181.758 169.45 182.025 169.357 182.256 169.202C182.37 169.125 182.474 169.026 182.681 168.828Z" fill="white"/>
<path d="M182.681 168.828C183.7 167.854 184.209 167.367 184.589 167.258C185.375 167.032 186.205 167.437 186.512 168.195C186.661 168.561 186.591 169.262 186.452 170.665C186.424 170.95 186.409 171.093 186.419 171.23C186.44 171.508 186.532 171.775 186.687 172.006C186.764 172.12 186.863 172.224 187.061 172.431C188.035 173.45 188.522 173.959 188.631 174.339C188.857 175.125 188.453 175.955 187.694 176.263C187.328 176.411 186.627 176.341 185.224 176.202C184.939 176.174 184.796 176.16 184.659 176.17C184.382 176.19 184.114 176.282 183.883 176.437C183.769 176.514 183.665 176.613 183.458 176.811C182.439 177.786 181.93 178.273 181.55 178.381C180.764 178.607 179.934 178.203 179.627 177.444C179.478 177.078 179.548 176.377 179.687 174.974C179.715 174.689 179.73 174.546 179.72 174.409C179.699 174.132 179.607 173.864 179.452 173.633C179.375 173.519 179.276 173.415 179.078 173.208C178.104 172.189 177.617 171.68 177.508 171.301C177.282 170.514 177.686 169.684 178.445 169.377C178.811 169.229 179.512 169.298 180.915 169.437C181.2 169.466 181.343 169.48 181.48 169.47C181.758 169.45 182.025 169.357 182.256 169.202C182.37 169.125 182.474 169.026 182.681 168.828Z" fill="url(#paint3_linear_24131_1370)"/>
</g>
</g>
</g>
<g filter="url(#filter5_f_24131_1370)" style="mix-blend-mode:plus-darker">
<path d="M258.104 311.75H289.171C293.528 311.75 294.745 305.77 290.733 304.068L237.167 281.333H233.121L258.104 311.75Z" fill="url(#paint4_linear_24131_1370)" fill-opacity="0.2"/>
</g>
<path d="M233.121 93.6704L258.094 124.17V311.837L233.121 281.337V93.6704Z" fill="#DFDCFD"/>
<path d="M233.121 93.6704L258.094 124.17V311.837L233.121 281.337V93.6704Z" fill="url(#paint5_linear_24131_1370)"/>
<g opacity="0.6" filter="url(#filter6_n_24131_1370)">
<path d="M136.753 219.556C138.129 216.465 138.817 214.92 139.561 214.333C141.102 213.117 143.314 213.26 144.686 214.665C145.348 215.342 145.831 216.963 146.798 220.205C146.995 220.865 147.093 221.194 147.24 221.49C147.537 222.088 147.986 222.598 148.541 222.97C148.815 223.154 149.129 223.294 149.758 223.574C152.848 224.95 154.393 225.638 154.98 226.382C156.197 227.924 156.054 230.135 154.649 231.507C153.971 232.169 152.35 232.653 149.108 233.62C148.449 233.816 148.119 233.915 147.824 234.061C147.226 234.359 146.715 234.807 146.343 235.362C146.16 235.636 146.02 235.951 145.74 236.579C144.363 239.67 143.675 241.215 142.932 241.802C141.39 243.018 139.179 242.875 137.806 241.47C137.144 240.793 136.661 239.172 135.694 235.93C135.497 235.27 135.399 234.941 135.252 234.645C134.955 234.047 134.506 233.537 133.951 233.165C133.677 232.981 133.363 232.841 132.734 232.561C129.644 231.185 128.099 230.497 127.512 229.753C126.296 228.211 126.438 226 127.843 224.628C128.521 223.966 130.142 223.482 133.384 222.515C134.043 222.319 134.373 222.22 134.668 222.074C135.267 221.776 135.777 221.328 136.149 220.773C136.333 220.499 136.473 220.184 136.753 219.556Z" fill="white"/>
<path d="M136.753 219.556C138.129 216.465 138.817 214.92 139.561 214.333C141.102 213.117 143.314 213.26 144.686 214.665C145.348 215.342 145.831 216.963 146.798 220.205C146.995 220.865 147.093 221.194 147.24 221.49C147.537 222.088 147.986 222.598 148.541 222.97C148.815 223.154 149.129 223.294 149.758 223.574C152.848 224.95 154.393 225.638 154.98 226.382C156.197 227.924 156.054 230.135 154.649 231.507C153.971 232.169 152.35 232.653 149.108 233.62C148.449 233.816 148.119 233.915 147.824 234.061C147.226 234.359 146.715 234.807 146.343 235.362C146.16 235.636 146.02 235.951 145.74 236.579C144.363 239.67 143.675 241.215 142.932 241.802C141.39 243.018 139.179 242.875 137.806 241.47C137.144 240.793 136.661 239.172 135.694 235.93C135.497 235.27 135.399 234.941 135.252 234.645C134.955 234.047 134.506 233.537 133.951 233.165C133.677 232.981 133.363 232.841 132.734 232.561C129.644 231.185 128.099 230.497 127.512 229.753C126.296 228.211 126.438 226 127.843 224.628C128.521 223.966 130.142 223.482 133.384 222.515C134.043 222.319 134.373 222.22 134.668 222.074C135.267 221.776 135.777 221.328 136.149 220.773C136.333 220.499 136.473 220.184 136.753 219.556Z" fill="url(#paint6_linear_24131_1370)"/>
</g>
<defs>
<filter id="filter0_fn_24131_1370" x="-0.427979" y="-71.3833" width="414.845" height="557.766" filterUnits="userSpaceOnUse" color-interpolation-filters="sRGB">
<feFlood flood-opacity="0" result="BackgroundImageFix"/>
<feBlend mode="normal" in="SourceGraphic" in2="BackgroundImageFix" result="shape"/>
<feGaussianBlur stdDeviation="60" result="effect1_foregroundBlur_24131_1370"/>
<feTurbulence type="fractalNoise" baseFrequency="5 5" stitchTiles="stitch" numOctaves="3" result="noise" seed="7412" />
<feColorMatrix in="noise" type="luminanceToAlpha" result="alphaNoise" />
<feComponentTransfer in="alphaNoise" result="coloredNoise1">
<feFuncA type="discrete" tableValues="1 1 1 1 1 1 1 1 1 1 1 1 1 1 1 1 1 1 1 1 1 1 1 1 1 1 1 1 1 1 1 1 1 1 1 1 1 1 1 1 1 1 1 1 1 1 1 1 1 1 1 0 0 0 0 0 0 0 0 0 0 0 0 0 0 0 0 0 0 0 0 0 0 0 0 0 0 0 0 0 0 0 0 0 0 0 0 0 0 0 0 0 0 0 0 0 0 0 0 0 "/>
</feComponentTransfer>
<feComposite operator="in" in2="effect1_foregroundBlur_24131_1370" in="coloredNoise1" result="noise1Clipped" />
<feFlood flood-color="rgba(112, 71, 235, 0.5)" result="color1Flood" />
<feComposite operator="in" in2="noise1Clipped" in="color1Flood" result="color1" />
<feMerge result="effect2_noise_24131_1370">
<feMergeNode in="effect1_foregroundBlur_24131_1370" />
<feMergeNode in="color1" />
</feMerge>
</filter>
<filter id="filter1_f_24131_1370" x="135.075" y="276.533" width="140.604" height="50.6918" filterUnits="userSpaceOnUse" color-interpolation-filters="sRGB">
<feFlood flood-opacity="0" result="BackgroundImageFix"/>
<feBlend mode="normal" in="SourceGraphic" in2="BackgroundImageFix" result="shape"/>
<feGaussianBlur stdDeviation="2.4" result="effect1_foregroundBlur_24131_1370"/>
</filter>
<filter id="filter2_f_24131_1370" x="148.118" y="269.221" width="60.5358" height="92.077" filterUnits="userSpaceOnUse" color-interpolation-filters="sRGB">
<feFlood flood-opacity="0" result="BackgroundImageFix"/>
<feBlend mode="normal" in="SourceGraphic" in2="BackgroundImageFix" result="shape"/>
<feGaussianBlur stdDeviation="5.88926" result="effect1_foregroundBlur_24131_1370"/>
</filter>
<filter id="filter3_n_24131_1370" x="156.67" y="236.34" width="45.3569" height="45.3574" filterUnits="userSpaceOnUse" color-interpolation-filters="sRGB">
<feFlood flood-opacity="0" result="BackgroundImageFix"/>
<feBlend mode="normal" in="SourceGraphic" in2="BackgroundImageFix" result="shape"/>
<feTurbulence type="fractalNoise" baseFrequency="4.559330940246582 4.559330940246582" stitchTiles="stitch" numOctaves="3" result="noise" seed="2906" />
<feColorMatrix in="noise" type="luminanceToAlpha" result="alphaNoise" />
<feComponentTransfer in="alphaNoise" result="coloredNoise1">
<feFuncA type="discrete" tableValues="1 1 1 1 1 1 1 1 1 1 1 1 1 1 1 1 1 1 1 1 1 1 1 1 1 1 1 1 1 1 1 1 1 1 1 1 1 1 1 1 1 1 1 1 1 1 1 1 1 1 1 0 0 0 0 0 0 0 0 0 0 0 0 0 0 0 0 0 0 0 0 0 0 0 0 0 0 0 0 0 0 0 0 0 0 0 0 0 0 0 0 0 0 0 0 0 0 0 0 0 "/>
</feComponentTransfer>
<feComposite operator="in" in2="shape" in="coloredNoise1" result="noise1Clipped" />
<feComponentTransfer in="alphaNoise" result="coloredNoise2">
<feFuncA type="discrete" tableValues="0 0 0 0 0 0 0 0 0 0 0 0 0 0 0 0 0 0 0 0 0 0 0 0 0 0 0 0 0 0 0 0 0 0 0 0 0 0 0 0 0 0 0 0 0 0 0 0 0 1 1 1 1 1 1 1 1 1 1 1 1 1 1 1 1 1 1 1 1 1 1 1 1 1 1 1 1 1 1 1 1 1 1 1 1 1 1 1 1 1 1 1 1 1 1 1 1 1 1 1 "/>
</feComponentTransfer>
<feComposite operator="in" in2="shape" in="coloredNoise2" result="noise2Clipped" />
<feFlood flood-color="rgba(255, 255, 255, 0.2)" result="color1Flood" />
<feComposite operator="in" in2="noise1Clipped" in="color1Flood" result="color1" />
<feFlood flood-color="rgba(71, 41, 163, 0.5)" result="color2Flood" />
<feComposite operator="in" in2="noise2Clipped" in="color2Flood" result="color2" />
<feMerge result="effect1_noise_24131_1370">
<feMergeNode in="shape" />
<feMergeNode in="color1" />
<feMergeNode in="color2" />
</feMerge>
</filter>
<filter id="filter4_n_24131_1370" x="177.446" y="167.196" width="11.248" height="11.248" filterUnits="userSpaceOnUse" color-interpolation-filters="sRGB">
<feFlood flood-opacity="0" result="BackgroundImageFix"/>
<feBlend mode="normal" in="SourceGraphic" in2="BackgroundImageFix" result="shape"/>
<feTurbulence type="fractalNoise" baseFrequency="20.000001907348633 20.000001907348633" stitchTiles="stitch" numOctaves="3" result="noise" seed="2906" />
<feColorMatrix in="noise" type="luminanceToAlpha" result="alphaNoise" />
<feComponentTransfer in="alphaNoise" result="coloredNoise1">
<feFuncA type="discrete" tableValues="1 1 1 1 1 1 1 1 1 1 1 1 1 1 1 1 1 1 1 1 1 1 1 1 1 1 1 1 1 1 1 1 1 1 1 1 1 1 1 1 1 1 1 1 1 1 1 1 1 1 1 0 0 0 0 0 0 0 0 0 0 0 0 0 0 0 0 0 0 0 0 0 0 0 0 0 0 0 0 0 0 0 0 0 0 0 0 0 0 0 0 0 0 0 0 0 0 0 0 0 "/>
</feComponentTransfer>
<feComposite operator="in" in2="shape" in="coloredNoise1" result="noise1Clipped" />
<feComponentTransfer in="alphaNoise" result="coloredNoise2">
<feFuncA type="discrete" tableValues="0 0 0 0 0 0 0 0 0 0 0 0 0 0 0 0 0 0 0 0 0 0 0 0 0 0 0 0 0 0 0 0 0 0 0 0 0 0 0 0 0 0 0 0 0 0 0 0 0 1 1 1 1 1 1 1 1 1 1 1 1 1 1 1 1 1 1 1 1 1 1 1 1 1 1 1 1 1 1 1 1 1 1 1 1 1 1 1 1 1 1 1 1 1 1 1 1 1 1 1 "/>
</feComponentTransfer>
<feComposite operator="in" in2="shape" in="coloredNoise2" result="noise2Clipped" />
<feFlood flood-color="rgba(255, 255, 255, 0.3)" result="color1Flood" />
<feComposite operator="in" in2="noise1Clipped" in="color1Flood" result="color1" />
<feFlood flood-color="rgba(71, 41, 163, 0.5)" result="color2Flood" />
<feComposite operator="in" in2="noise2Clipped" in="color2Flood" result="color2" />
<feMerge result="effect1_noise_24131_1370">
<feMergeNode in="shape" />
<feMergeNode in="color1" />
<feMergeNode in="color2" />
</feMerge>
</filter>
<filter id="filter5_f_24131_1370" x="213.121" y="261.333" width="100.055" height="70.4175" filterUnits="userSpaceOnUse" color-interpolation-filters="sRGB">
<feFlood flood-opacity="0" result="BackgroundImageFix"/>
<feBlend mode="normal" in="SourceGraphic" in2="BackgroundImageFix" result="shape"/>
<feGaussianBlur stdDeviation="10" result="effect1_foregroundBlur_24131_1370"/>
</filter>
<filter id="filter6_n_24131_1370" x="126.687" y="213.508" width="29.1191" height="29.1191" filterUnits="userSpaceOnUse" color-interpolation-filters="sRGB">
<feFlood flood-opacity="0" result="BackgroundImageFix"/>
<feBlend mode="normal" in="SourceGraphic" in2="BackgroundImageFix" result="shape"/>
<feTurbulence type="fractalNoise" baseFrequency="8.3333330154418945 8.3333330154418945" stitchTiles="stitch" numOctaves="3" result="noise" seed="2906" />
<feColorMatrix in="noise" type="luminanceToAlpha" result="alphaNoise" />
<feComponentTransfer in="alphaNoise" result="coloredNoise1">
<feFuncA type="discrete" tableValues="1 1 1 1 1 1 1 1 1 1 1 1 1 1 1 1 1 1 1 1 1 1 1 1 1 1 1 1 1 1 1 1 1 1 1 1 1 1 1 1 1 1 1 1 1 1 1 1 1 1 1 0 0 0 0 0 0 0 0 0 0 0 0 0 0 0 0 0 0 0 0 0 0 0 0 0 0 0 0 0 0 0 0 0 0 0 0 0 0 0 0 0 0 0 0 0 0 0 0 0 "/>
</feComponentTransfer>
<feComposite operator="in" in2="shape" in="coloredNoise1" result="noise1Clipped" />
<feComponentTransfer in="alphaNoise" result="coloredNoise2">
<feFuncA type="discrete" tableValues="0 0 0 0 0 0 0 0 0 0 0 0 0 0 0 0 0 0 0 0 0 0 0 0 0 0 0 0 0 0 0 0 0 0 0 0 0 0 0 0 0 0 0 0 0 0 0 0 0 1 1 1 1 1 1 1 1 1 1 1 1 1 1 1 1 1 1 1 1 1 1 1 1 1 1 1 1 1 1 1 1 1 1 1 1 1 1 1 1 1 1 1 1 1 1 1 1 1 1 1 "/>
</feComponentTransfer>
<feComposite operator="in" in2="shape" in="coloredNoise2" result="noise2Clipped" />
<feFlood flood-color="rgba(255, 255, 255, 0.3)" result="color1Flood" />
<feComposite operator="in" in2="noise1Clipped" in="color1Flood" result="color1" />
<feFlood flood-color="rgba(71, 41, 163, 0.5)" result="color2Flood" />
<feComposite operator="in" in2="noise2Clipped" in="color2Flood" result="color2" />
<feMerge result="effect1_noise_24131_1370">
<feMergeNode in="shape" />
<feMergeNode in="color1" />
<feMergeNode in="color2" />
</feMerge>
</filter>
<linearGradient id="paint0_linear_24131_1370" x1="201.499" y1="270.525" x2="201.499" y2="317.363" gradientUnits="userSpaceOnUse">
<stop stop-color="white"/>
<stop offset="1" stop-color="white" stop-opacity="0"/>
</linearGradient>
<linearGradient id="paint1_linear_24131_1370" x1="203.514" y1="266.509" x2="188.936" y2="323.517" gradientUnits="userSpaceOnUse">
<stop stop-color="#4729A3"/>
<stop offset="0.452861" stop-color="#513D8F" stop-opacity="0.43284"/>
<stop offset="1" stop-opacity="0"/>
</linearGradient>
<linearGradient id="paint2_linear_24131_1370" x1="155.992" y1="237.552" x2="211.319" y2="284.756" gradientUnits="userSpaceOnUse">
<stop stop-color="#5E1AE5" stop-opacity="0"/>
<stop offset="0.278846" stop-color="#5520CB" stop-opacity="0.396853"/>
<stop offset="0.526753" stop-color="#4F24B9" stop-opacity="0.667117"/>
<stop offset="0.764423" stop-color="#4B27AD" stop-opacity="0.853245"/>
<stop offset="1" stop-color="#4729A3"/>
</linearGradient>
<linearGradient id="paint3_linear_24131_1370" x1="182.5" y1="164.987" x2="184.467" y2="182.883" gradientUnits="userSpaceOnUse">
<stop stop-color="#5E1AE5" stop-opacity="0"/>
<stop offset="0.278846" stop-color="#5520CB" stop-opacity="0.396853"/>
<stop offset="0.526753" stop-color="#4F24B9" stop-opacity="0.667117"/>
<stop offset="0.764423" stop-color="#4B27AD" stop-opacity="0.853245"/>
<stop offset="1" stop-color="#4729A3"/>
</linearGradient>
<linearGradient id="paint4_linear_24131_1370" x1="233" y1="293.417" x2="233" y2="312.167" gradientUnits="userSpaceOnUse">
<stop stop-color="#4729A3"/>
<stop offset="1" stop-opacity="0"/>
</linearGradient>
<linearGradient id="paint5_linear_24131_1370" x1="233.121" y1="140.896" x2="326.102" y2="230.646" gradientUnits="userSpaceOnUse">
<stop stop-color="#EAE2FF" stop-opacity="0"/>
<stop offset="1" stop-color="white" stop-opacity="0.667117"/>
</linearGradient>
<linearGradient id="paint6_linear_24131_1370" x1="132.858" y1="211.19" x2="153.504" y2="249.146" gradientUnits="userSpaceOnUse">
<stop stop-color="#5E1AE5" stop-opacity="0"/>
<stop offset="0.278846" stop-color="#5520CB" stop-opacity="0.396853"/>
<stop offset="0.526753" stop-color="#4F24B9" stop-opacity="0.667117"/>
<stop offset="0.764423" stop-color="#4B27AD" stop-opacity="0.853245"/>
<stop offset="1" stop-color="#4729A3"/>
</linearGradient>
<clipPath id="clip0_24131_1370">
<rect width="50.4" height="158.4" fill="white" transform="translate(170.8 129.201)"/>
</clipPath>
</defs>
</svg>
