<svg width="40" height="40" viewBox="0 0 40 40" fill="none" xmlns="http://www.w3.org/2000/svg">
<path d="M0 20C0 8.95431 8.95431 0 20 0C31.0457 0 40 8.95431 40 20C40 31.0457 31.0457 40 20 40C8.95431 40 0 31.0457 0 20Z" fill="#F3F4F7"/>
<path fill-rule="evenodd" clip-rule="evenodd" d="M26.0337 16.0087C26.6643 15.9747 27.2498 16.0403 27.7899 16.2051C28.3295 16.3615 28.7978 16.6062 29.1951 16.9389C29.5926 17.2717 29.9105 17.6891 30.1484 18.1907C30.3946 18.6917 30.5351 19.266 30.57 19.9133L24.6636 21.5726C25.0678 22.0314 25.6317 22.2416 26.3548 22.2026C26.8592 22.1754 27.2883 22.0759 27.6417 21.9051C27.9945 21.7259 28.3213 21.4552 28.6222 21.0933L30.5103 21.6207C30.1186 22.6 29.2715 23.3107 28.7473 23.6451C28.1503 23.9892 27.4988 24.19 26.6664 24.2348C25.9854 24.2715 25.3578 24.2082 24.7841 24.0452C24.2108 23.8906 23.7088 23.6476 23.2777 23.3167C22.8467 22.9857 22.5038 22.5744 22.2496 22.0822C21.995 21.5815 21.8504 21.0116 21.8159 20.3726C21.7824 19.7504 21.8659 19.1809 22.0658 18.6641C22.2736 18.1386 22.5695 17.6882 22.9541 17.3134C23.3382 16.9301 23.7944 16.627 24.3221 16.4047C24.8493 16.1739 25.42 16.0418 26.0337 16.0087ZM26.2307 18.022C25.6589 18.0528 25.1941 18.1934 24.8391 18.4908C24.4841 18.7881 24.1444 19.2113 24.0702 19.7127L27.8355 18.6945C27.6556 18.485 27.4313 18.3159 27.163 18.187C26.8946 18.0581 26.5838 18.003 26.2307 18.022Z" fill="#8996A9"/>
<path d="M18.4864 16.2182C18.8256 16.2265 19.1526 16.305 19.4669 16.4539C19.7895 16.5945 20.0746 16.8016 20.3227 17.0745C20.5709 17.3392 20.7693 17.6619 20.9182 18.0424C21.0671 18.4229 21.1419 18.849 21.1419 19.3204V23.8242H18.5608V19.3696C18.5608 19.0802 18.4865 18.8402 18.3377 18.65C18.1971 18.4599 17.9903 18.3646 17.7175 18.3645C17.4612 18.3645 17.2626 18.4475 17.122 18.6128C16.9897 18.7782 16.9026 18.9892 16.8612 19.2455V23.8242H14.2807V19.3696C14.2806 19.0802 14.2059 18.8402 14.057 18.65C13.9164 18.4599 13.7097 18.3646 13.4369 18.3645C13.3046 18.3645 13.1889 18.398 13.0896 18.4641C12.9904 18.5219 12.9075 18.6005 12.8414 18.6998C12.7752 18.7907 12.7171 18.8983 12.6675 19.0224C12.6262 19.1381 12.5971 19.2539 12.5805 19.3696V23.8242H10V16.4665H11.9238L12.4072 16.9876C12.6553 16.7147 12.9405 16.5204 13.263 16.4047C13.5855 16.2889 13.9041 16.2265 14.2183 16.2182C14.5905 16.2099 14.9504 16.2928 15.2978 16.4665C15.6534 16.6401 15.9595 16.8925 16.2159 17.2233C16.5219 16.8429 16.8776 16.5782 17.2828 16.4293C17.6963 16.2804 18.0977 16.2099 18.4864 16.2182Z" fill="#8996A9"/>
</svg>
