<svg preserveAspectRatio="none" width="100%" height="100%" overflow="visible" style="display: block;" viewBox="0 0 71.8813 14.8166" fill="none" xmlns="http://www.w3.org/2000/svg">
<g id="houme">
<path id="Vector" d="M63.0866 10.8373C63.6884 11.5206 64.5278 11.8333 65.6045 11.7753C66.3559 11.7348 66.9945 11.5874 67.5207 11.333C68.0462 11.0661 68.5331 10.6632 68.9813 10.1242L71.7922 10.9095C71.2089 12.3677 69.948 13.4252 69.1675 13.923C68.2783 14.4355 67.3085 14.7347 66.069 14.8015C65.0549 14.8561 64.1206 14.7621 63.2662 14.5193C62.4125 14.289 61.6648 13.9275 61.0229 13.4347C60.381 12.9419 59.8709 12.329 59.4924 11.596C59.1131 10.8505 58.8979 10.002 58.8467 9.0504C58.7968 8.1239 58.9206 7.27592 59.2181 6.50649C59.5275 5.72387 59.9687 5.05343 60.5412 4.49521C61.1132 3.92444 61.7922 3.4735 62.5779 3.14238C63.363 2.7987 64.2125 2.60226 65.1265 2.55301C66.0656 2.50242 66.9372 2.59985 67.7414 2.84534C68.5451 3.07828 69.2427 3.4425 69.8346 3.938C70.4263 4.43351 70.8993 5.05469 71.2534 5.80156C71.6201 6.54776 71.8294 7.4029 71.8813 8.36698L63.0866 10.8373ZM65.4199 5.5508C64.5685 5.59668 63.8766 5.80544 63.3479 6.24829C62.8193 6.69115 62.3137 7.32156 62.2034 8.06836L67.8094 6.55218C67.5415 6.24013 67.2076 5.98815 66.8081 5.79621C66.4084 5.60428 65.9458 5.52248 65.4199 5.5508Z" fill="var(--fill-0, black)"/>
<path id="Vector_2" d="M51.4685 14.1902H47.6258V7.55778C47.6258 7.12671 47.5148 6.76954 47.2931 6.48626C47.0838 6.20297 46.7759 6.06134 46.3695 6.06134C46.1724 6.06134 45.9999 6.1106 45.8521 6.20914C45.7043 6.29535 45.5811 6.41235 45.4826 6.56015C45.384 6.69563 45.2979 6.85575 45.224 7.04049C45.1625 7.21292 45.1193 7.38536 45.0947 7.55778V14.1902H41.252V3.23472H44.1167L44.8361 4.01066C45.2055 3.60421 45.6304 3.31478 46.1107 3.14234C46.591 2.96993 47.0652 2.87755 47.5333 2.86523C48.0876 2.85291 48.6233 2.97608 49.1406 3.23472C49.6702 3.49337 50.1259 3.86901 50.5077 4.36167C50.9634 3.79512 51.4931 3.40099 52.0966 3.1793C52.7124 2.95761 53.3098 2.85291 53.8886 2.86523C54.3936 2.87755 54.88 2.99454 55.3481 3.21625C55.8284 3.42563 56.2534 3.73353 56.6229 4.13997C56.9923 4.5341 57.2879 5.01444 57.5096 5.58101C57.7314 6.14755 57.8421 6.78186 57.8421 7.48389V14.1902H53.9994V7.55778C53.9994 7.12671 53.8886 6.76954 53.6669 6.48626C53.4576 6.20297 53.1495 6.06134 52.7431 6.06134C52.3613 6.06134 52.0657 6.18451 51.8564 6.43083C51.6593 6.67716 51.53 6.99123 51.4685 7.37304V14.1902Z" fill="var(--fill-0, black)"/>
<path id="Vector_3" d="M35.9803 13.5149C35.6938 13.7059 35.2692 14.0269 34.6455 14.2575C34.079 14.4668 33.5431 14.5715 33.0382 14.5715C32.2993 14.5715 31.6156 14.4607 30.9874 14.239C30.3593 14.0296 29.8114 13.7279 29.3433 13.3337C28.8876 12.9396 28.5305 12.4716 28.2717 11.9296C28.0131 11.3877 27.8838 10.7904 27.8838 10.1376V3.24658H31.7265V8.95525C31.7265 9.41095 31.7819 9.79891 31.8929 10.1191C32.0036 10.427 32.1515 10.6795 32.3361 10.8766C32.521 11.0614 32.7303 11.1968 32.9643 11.283C33.2106 11.3569 33.457 11.3939 33.7034 11.3939C34.2576 11.3939 34.7318 11.2276 35.1258 10.8951C35.5322 10.5502 35.9203 10.0772 35.9203 8.74035V3.24658H39.763V14.202H36.8599L35.9803 13.5149Z" fill="var(--fill-0, black)"/>
<path id="Union" d="M3.83343 6.15635L9.34429 4.67979V0H13.1777V14.3236H9.34429V8.32448L3.83343 9.80104V14.3236H0V0H3.83343V6.15635Z" fill="var(--fill-0, black)"/>
<path id="Vector_4" d="M14.7061 8.67617C14.7061 7.86043 14.8525 7.10745 15.1454 6.4172C15.4472 5.72698 15.8555 5.13534 16.3703 4.64232C16.894 4.14032 17.5109 3.75038 18.221 3.4725C18.9311 3.1946 19.7033 3.05566 20.5377 3.05566C21.3809 3.05566 22.1576 3.1946 22.8676 3.4725C23.5777 3.75038 24.1902 4.14032 24.7049 4.64232C25.2286 5.13534 25.6325 5.72698 25.9165 6.4172C26.2094 7.10745 26.3559 7.86043 26.3559 8.67617C26.3559 9.50087 26.2094 10.2583 25.9165 10.9486C25.6325 11.6388 25.2286 12.2349 24.7049 12.7369C24.1902 13.2389 23.5777 13.6289 22.8676 13.9067C22.1576 14.1846 21.3809 14.3236 20.5377 14.3236C19.7033 14.3236 18.9311 14.1846 18.221 13.9067C17.5109 13.6289 16.894 13.2389 16.3703 12.7369C15.8555 12.2349 15.4472 11.6388 15.1454 10.9486C14.8525 10.2583 14.7061 9.50087 14.7061 8.67617ZM17.4754 8.67617C17.4754 9.16919 17.5464 9.62189 17.6884 10.0342C17.8393 10.4376 18.0479 10.7872 18.3142 11.083C18.5805 11.3788 18.9 11.6119 19.2728 11.7822C19.6544 11.9436 20.0761 12.0243 20.5377 12.0243C20.9993 12.0243 21.4164 11.9436 21.7892 11.7822C22.1708 11.6119 22.4949 11.3788 22.7611 11.083C23.0273 10.7872 23.2315 10.4376 23.3736 10.0342C23.5244 9.62189 23.5999 9.16919 23.5999 8.67617C23.5999 8.20107 23.5244 7.76183 23.3736 7.35844C23.2315 6.95507 23.0273 6.60546 22.7611 6.30964C22.4949 6.01383 22.1708 5.78525 21.7892 5.62389C21.4164 5.45357 20.9993 5.36841 20.5377 5.36841C20.0761 5.36841 19.6544 5.45357 19.2728 5.62389C18.9 5.78525 18.5805 6.01383 18.3142 6.30964C18.0479 6.60546 17.8393 6.95507 17.6884 7.35844C17.5464 7.76183 17.4754 8.20107 17.4754 8.67617Z" fill="var(--fill-0, black)" stroke="var(--stroke-0, black)" stroke-width="0.954907"/>
</g>
</svg>
