<svg width="24" height="24" viewBox="0 0 24 24" fill="none" xmlns="http://www.w3.org/2000/svg">
<circle cx="12" cy="12" r="10" fill="#14940B"/>
<path d="M12.4946 16.4093C12.2212 16.6825 11.7777 16.6826 11.5044 16.4093L8.67623 13.5812C8.40349 13.308 8.40303 12.8644 8.67624 12.591C8.9495 12.3182 9.3932 12.3182 9.66647 12.591L11.2993 14.2238L11.2993 8.08609C11.2994 7.69971 11.6131 7.38607 11.9995 7.3859C12.386 7.3859 12.6995 7.6996 12.6997 8.08609L12.6997 14.2238L14.3335 12.591C14.6067 12.3182 15.0504 12.3182 15.3237 12.591C15.5967 12.8644 15.5963 13.3081 15.3237 13.5812L12.4946 16.4093ZM9.37155 12.6271C9.36939 12.6262 9.36688 12.6261 9.36471 12.6252C9.39296 12.637 9.42063 12.6509 9.44674 12.6681L9.37155 12.6271Z" fill="white"/>
</svg>
