<svg width="20" height="20" viewBox="0 0 20 20" fill="none" xmlns="http://www.w3.org/2000/svg">
<path d="M10.54 18.2861C9.76548 19.5641 7.80078 19.0149 7.80078 17.5205L7.80078 13.6621L4.95313 13.6621C3.3219 13.662 2 12.3392 2 10.708L2 5.95311C2 4.32187 3.3219 2.99908 4.95313 2.99901L12.5225 2.99901C13.3381 2.99901 14 3.66091 14 4.47655L14 12.1855C13.9999 12.5226 13.8855 12.8325 13.6953 13.081L10.54 18.2861Z" fill="#C9CFD9"/>
<path d="M18 12.1858C18 13.0014 17.3388 13.6626 16.5232 13.6626L14.6768 13.6626C13.8612 13.6626 13.2 13.0014 13.2 12.1857L13.2 4.47664C13.2 3.661 13.8612 2.9998 14.6768 2.9998L16.5232 2.9998C17.3388 2.9998 18 3.661 18 4.47665L18 12.1858Z" fill="#8996A9"/>
</svg>
