<svg width="16" height="16" viewBox="0 0 16 16" fill="none" xmlns="http://www.w3.org/2000/svg">
<path d="M4.43407 9.32699C4.27991 8.25669 4.20282 7.72154 4.33204 7.44525C4.52186 7.0394 4.95409 6.80469 5.39786 6.8665C5.69995 6.90858 6.10682 7.26465 6.92055 7.9768C7.08584 8.12145 7.16849 8.19378 7.2603 8.24553C7.39448 8.32115 7.54402 8.36544 7.69774 8.37508C7.80293 8.38168 7.91163 8.36602 8.12904 8.33471C9.19934 8.18054 9.73449 8.10346 10.0108 8.23268C10.4166 8.4225 10.6513 8.85472 10.5895 9.29849C10.5475 9.60059 10.1914 10.0075 9.47923 10.8212C9.33458 10.9865 9.26225 11.0691 9.2105 11.1609C9.13488 11.2951 9.09059 11.4447 9.08095 11.5984C9.07435 11.7036 9.09001 11.8123 9.12133 12.0297C9.27549 13.1 9.35257 13.6351 9.22335 13.9114C9.03353 14.3173 8.60131 14.552 8.15754 14.4902C7.85544 14.4481 7.44858 14.092 6.63485 13.3799C6.46956 13.2352 6.38691 13.1629 6.2951 13.1111C6.16092 13.0355 6.01137 12.9912 5.85765 12.9816C5.75247 12.975 5.64377 12.9906 5.42636 13.022C4.35606 13.1761 3.82091 13.2532 3.54462 13.124C3.13876 12.9342 2.90406 12.5019 2.96586 12.0582C3.00794 11.7561 3.36401 11.3492 4.07616 10.5355C4.22082 10.3702 4.29315 10.2875 4.34489 10.1957C4.42052 10.0616 4.46481 9.91201 4.47445 9.75829C4.48104 9.6531 4.46539 9.5444 4.43407 9.32699Z" fill="#1B1E22"/>
<path d="M11.9019 3.18352C11.9876 2.58865 12.0305 2.29122 11.9586 2.13766C11.8531 1.91209 11.6129 1.78165 11.3663 1.816C11.1984 1.83938 10.9722 2.03729 10.52 2.43309C10.4281 2.51349 10.3822 2.55369 10.3311 2.58245C10.2566 2.62448 10.1735 2.64909 10.088 2.65445C10.0296 2.65812 9.96914 2.64942 9.84831 2.63201C9.25345 2.54633 8.95602 2.50349 8.80246 2.57531C8.57689 2.68081 8.44644 2.92103 8.48079 3.16767C8.50418 3.33558 8.70208 3.56171 9.09788 4.01397C9.17828 4.10584 9.21848 4.15177 9.24724 4.2028C9.28927 4.27737 9.31389 4.36049 9.31925 4.44593C9.32291 4.50439 9.31421 4.5648 9.29681 4.68564C9.21112 5.2805 9.16828 5.57793 9.2401 5.73149C9.3456 5.95706 9.58583 6.08751 9.83247 6.05315C10.0004 6.02977 10.2265 5.83187 10.6788 5.43606C10.7706 5.35566 10.8166 5.31546 10.8676 5.2867C10.9422 5.24467 11.0253 5.22006 11.1107 5.2147C11.1692 5.21103 11.2296 5.21973 11.3504 5.23714C11.9453 5.32282 12.2427 5.36566 12.3963 5.29385C12.6219 5.18835 12.7523 4.94812 12.7179 4.70148C12.6946 4.53358 12.4967 4.30744 12.1009 3.85518C12.0205 3.76331 11.9803 3.71738 11.9515 3.66635C11.9095 3.59178 11.8849 3.50866 11.8795 3.42323C11.8758 3.36476 11.8845 3.30435 11.9019 3.18352Z" fill="#1B1E22"/>
</svg>
