<svg width="24" height="24" viewBox="0 0 24 24" fill="none" xmlns="http://www.w3.org/2000/svg">
<circle cx="12" cy="12" r="10" fill="#6F00FF"/>
<path d="M15.8968 10.6667C17.0098 11.0786 17.5663 11.2845 17.7251 11.5845C17.8625 11.8444 17.8625 12.1556 17.7251 12.4155C17.5663 12.7155 17.0098 12.9214 15.8968 13.3333L14.6388 13.7988C14.4133 13.8823 14.3005 13.924 14.206 13.9905C14.1223 14.0494 14.0494 14.1223 13.9905 14.206C13.924 14.3005 13.8823 14.4133 13.7988 14.6388L13.3333 15.8968C12.9214 17.0098 12.7155 17.5663 12.4155 17.7251C12.1556 17.8625 11.8444 17.8625 11.5845 17.7251C11.2845 17.5663 11.0786 17.0098 10.6667 15.8968L10.2012 14.6388C10.1177 14.4133 10.076 14.3005 10.0095 14.206C9.95065 14.1223 9.87772 14.0494 9.79399 13.9905C9.69949 13.924 9.58674 13.8823 9.36124 13.7988L8.10322 13.3333C6.99018 12.9214 6.43366 12.7155 6.27494 12.4155C6.13745 12.1556 6.13745 11.8444 6.27494 11.5845C6.43366 11.2845 6.99018 11.0786 8.10322 10.6667L9.36124 10.2012C9.58674 10.1177 9.69949 10.076 9.79399 10.0095C9.87772 9.95065 9.95065 9.87772 10.0095 9.79399C10.076 9.69949 10.1177 9.58674 10.2012 9.36124L10.6667 8.10322C11.0786 6.99018 11.2845 6.43366 11.5845 6.27494C11.8444 6.13745 12.1556 6.13745 12.4155 6.27494C12.7155 6.43366 12.9214 6.99018 13.3333 8.10322L13.7988 9.36124C13.8823 9.58674 13.924 9.69949 13.9905 9.79399C14.0494 9.87772 14.1223 9.95065 14.206 10.0095C14.3005 10.076 14.4133 10.1177 14.6388 10.2012L15.8968 10.6667Z" fill="white"/>
</svg>

