<svg
  width="24"
  height="24"
  viewBox="0 0 24 24"
  fill="none"
  xmlns="http://www.w3.org/2000/svg"
>
  <g transform="translate(3 4)">
    <path
      d="M12.8574 0.5C15.4044 0.500157 17.4998 2.64659 17.5 5.33301C17.5 7.78218 15.7076 10.3232 13.6367 12.3057C12.6152 13.2835 11.5551 14.0969 10.6777 14.6631C10.2386 14.9465 9.85179 15.1636 9.54395 15.3076C9.39016 15.3796 9.26241 15.43 9.16211 15.4619C9.11231 15.4777 9.07258 15.4883 9.04297 15.4941C9.01231 15.5002 8.99905 15.5 9 15.5C9.00095 15.5 8.98769 15.5002 8.95703 15.4941C8.92742 15.4883 8.88769 15.4777 8.83789 15.4619C8.73759 15.43 8.60984 15.3796 8.45605 15.3076C8.14821 15.1636 7.76142 14.9465 7.32227 14.6631C6.44487 14.0969 5.3848 13.2835 4.36328 12.3057C2.29238 10.3232 0.5 7.78218 0.5 5.33301C0.500169 2.64659 2.59561 0.500157 5.14258 0.5C6.48388 0.5 7.735 1.28488 8.61914 2.32422C8.71414 2.43581 8.85344 2.5 9 2.5C9.14656 2.5 9.28586 2.43581 9.38086 2.32422C10.265 1.28488 11.5161 0.5 12.8574 0.5Z"
      fill="#000000"
      fill-opacity="0.2"
      stroke="#FFFFFF"
      stroke-linejoin="round"
    />
  </g>
</svg>
