<svg width="24" height="24" viewBox="0 0 24 24" fill="none" xmlns="http://www.w3.org/2000/svg">
<circle cx="12" cy="12" r="8" fill="white"/>
<path d="M10.9334 8.88257C11.2628 7.99214 11.4276 7.54693 11.6676 7.41995C11.8756 7.30996 12.1244 7.30996 12.3324 7.41995C12.5724 7.54693 12.7372 7.99214 13.0666 8.88257L13.4391 9.88899C13.5058 10.0694 13.5392 10.1596 13.5924 10.2352C13.6395 10.3022 13.6978 10.3605 13.7648 10.4076C13.8404 10.4608 13.9306 10.4942 14.111 10.5609L15.1174 10.9334C16.0079 11.2628 16.4531 11.4276 16.58 11.6676C16.69 11.8756 16.69 12.1244 16.58 12.3324C16.4531 12.5724 16.0079 12.7372 15.1174 13.0666L14.111 13.4391C13.9306 13.5058 13.8404 13.5392 13.7648 13.5924C13.6978 13.6395 13.6395 13.6978 13.5924 13.7648C13.5392 13.8404 13.5058 13.9306 13.4391 14.111L13.0666 15.1174C12.7372 16.0079 12.5724 16.4531 12.3324 16.58C12.1244 16.69 11.8756 16.69 11.6676 16.58C11.4276 16.4531 11.2628 16.0079 10.9334 15.1174L10.5609 14.111C10.4942 13.9306 10.4608 13.8404 10.4076 13.7648C10.3605 13.6978 10.3022 13.6395 10.2352 13.5924C10.1596 13.5392 10.0694 13.5058 9.88899 13.4391L8.88257 13.0666C7.99214 12.7372 7.54693 12.5724 7.41995 12.3324C7.30996 12.1244 7.30996 11.8756 7.41995 11.6676C7.54693 11.4276 7.99214 11.2628 8.88257 10.9334L9.88899 10.5609C10.0694 10.4942 10.1596 10.4608 10.2352 10.4076C10.3022 10.3605 10.3605 10.3022 10.4076 10.2352C10.4608 10.1596 10.4942 10.0694 10.5609 9.88899L10.9334 8.88257Z" fill="#8996A9"/>
</svg>

