<svg width="16" height="16" viewBox="0 0 16 16" fill="none" xmlns="http://www.w3.org/2000/svg">
<path d="M7.8 3.30078L6.072 3.30078C4.79209 3.30078 4.15214 3.30078 3.70351 3.62673C3.55863 3.73199 3.43121 3.85941 3.32594 4.00429C3 4.45292 3 5.09287 3 6.37278V9.82878C3 11.1087 3 11.7486 3.32594 12.1973C3.43121 12.3422 3.55863 12.4696 3.70351 12.5748C4.15214 12.9008 4.79209 12.9008 6.072 12.9008H9.528C10.8079 12.9008 11.4479 12.9008 11.8965 12.5748C12.0414 12.4696 12.1688 12.3422 12.2741 12.1973C12.6 11.7486 12.6 11.1087 12.6 9.82878V8.10078" stroke="#48505B" stroke-linecap="round"/>
<path d="M8.20045 7.70213L13.5545 2.59939M13.5545 2.59939L13.5545 5.9935M13.5545 2.59939L10.1604 2.59939" stroke="#48505B" stroke-linecap="round" stroke-linejoin="round"/>
</svg>
