<svg width="17" height="16" viewBox="0 0 17 16" fill="none" xmlns="http://www.w3.org/2000/svg">
<path d="M7.94361 0.707392C8.69879 -0.541396 10.6997 -0.0307437 10.6998 1.41095V5.3133H13.5465C15.1777 5.3133 16.5005 6.5753 16.5006 8.1315V13.1806C16.5006 14.7369 15.1778 15.9988 13.5465 15.9988H5.97702C5.16147 15.9987 4.5 15.3678 4.5 14.5897V6.7224C4.50008 6.36859 4.63769 6.04564 4.86353 5.79824L7.94361 0.707392Z" fill="#C9CFD9"/>
<path d="M0.5 6.72339C0.5 5.94525 1.16121 5.31445 1.97685 5.31445H3.82318C4.63882 5.31445 5.30003 5.94525 5.30003 6.72339V14.5905C5.30003 15.3687 4.63882 15.9995 3.82318 15.9995H1.97685C1.16121 15.9995 0.5 15.3687 0.5 14.5905V6.72339Z" fill="#8996A9"/>
</svg>
