<svg width="20" height="20" viewBox="0 0 20 20" fill="none" xmlns="http://www.w3.org/2000/svg">
<path d="M9.44361 1.70739C10.1988 0.458604 12.1997 0.969256 12.1998 2.41095V6.3133H15.0465C16.6777 6.3133 18.0005 7.5753 18.0006 9.1315V14.1806C18.0006 15.7369 16.6778 16.9988 15.0465 16.9988H7.47702C6.66147 16.9987 6 16.3678 6 15.5897V7.7224C6.00008 7.36859 6.13769 7.04564 6.36353 6.79824L9.44361 1.70739Z" fill="#A696FF"/>
<path d="M2 7.72339C2 6.94525 2.66121 6.31445 3.47685 6.31445H5.32318C6.13882 6.31445 6.80003 6.94525 6.80003 7.72339V15.5905C6.80003 16.3687 6.13882 16.9995 5.32318 16.9995H3.47685C2.66121 16.9995 2 16.3687 2 15.5905V7.72339Z" fill="#6F00FF"/>
</svg>
