<svg width="40" height="40" viewBox="0 0 40 40" fill="none" xmlns="http://www.w3.org/2000/svg">
<path d="M20 2C25.3019 2 29.5996 6.20777 29.5996 11.3984V14.5312H32.7998C34.567 14.5312 35.9999 15.9339 36 17.6641V33.3281C36 35.0584 34.5671 36.4619 32.7998 36.4619H7.2002C5.43288 36.4619 4 35.0584 4 33.3281V17.6641C4.00011 15.9339 5.43295 14.5312 7.2002 14.5312H10.4004V11.3984C10.4004 6.20777 14.6981 2 20 2ZM24.54 21.6797C23.9343 21.5955 23.3441 21.9157 23.085 22.4697C22.9085 22.8469 23.0141 23.5778 23.2246 25.0391C23.2674 25.3359 23.2883 25.4843 23.2793 25.6279C23.2661 25.8378 23.2058 26.0424 23.1025 26.2256C23.0319 26.3508 22.9336 26.464 22.7363 26.6895C21.7643 27.8001 21.2774 28.3552 21.2197 28.7676C21.1353 29.3734 21.4558 29.9644 22.0098 30.2236C22.387 30.4 23.118 30.2944 24.5791 30.084C24.8757 30.0413 25.0245 30.0194 25.168 30.0283C25.3778 30.0415 25.5824 30.1028 25.7656 30.2061C25.8909 30.2767 26.004 30.3749 26.2295 30.5723C27.3405 31.5446 27.8961 32.0314 28.3086 32.0889C28.9144 32.1731 29.5045 31.8519 29.7637 31.2979C29.9398 30.9205 29.8344 30.19 29.624 28.7295C29.5813 28.4329 29.5604 28.2841 29.5693 28.1406C29.5825 27.9307 29.6428 27.7262 29.7461 27.543C29.8167 27.4176 29.9158 27.3047 30.1133 27.0791C31.0855 25.9682 31.5715 25.4124 31.6289 25C31.7132 24.3942 31.3928 23.8041 30.8389 23.5449C30.4617 23.3685 29.7308 23.4741 28.2695 23.6846C27.9727 23.7273 27.8243 23.7483 27.6807 23.7393C27.4708 23.7261 27.2662 23.6658 27.083 23.5625C26.9578 23.4919 26.8447 23.3927 26.6191 23.1953C25.5084 22.2232 24.9525 21.7371 24.54 21.6797ZM20 5.91602C16.9072 5.91602 14.4004 8.37057 14.4004 11.3984V14.5312H25.5996V11.3984C25.5996 8.37057 23.0928 5.91602 20 5.91602Z" fill="white"/>
</svg>
