<svg width="120" height="32" viewBox="0 0 120 32" fill="none" xmlns="http://www.w3.org/2000/svg">
<path fill-rule="evenodd" clip-rule="evenodd" d="M91.6705 10.7316C92.6893 10.6767 93.6354 10.7826 94.508 11.0489C95.3798 11.3017 96.1366 11.6971 96.7786 12.2346C97.4207 12.7722 97.9345 13.4467 98.3188 14.2571C98.7165 15.0667 98.9436 15.9945 99 17.0405L89.4567 19.7214C90.1098 20.4628 91.0209 20.8024 92.1893 20.7395C93.0043 20.6956 93.6976 20.5348 94.2685 20.2588C94.8387 19.9692 95.3666 19.5318 95.8527 18.9471L98.9035 19.7993C98.2706 21.3816 96.902 22.5299 96.055 23.0701C95.0904 23.6262 94.0377 23.9505 92.6928 24.023C91.5923 24.0823 90.5784 23.9801 89.6513 23.7166C88.725 23.4668 87.9139 23.0742 87.2175 22.5395C86.5211 22.0048 85.967 21.3402 85.5563 20.5449C85.1448 19.736 84.9112 18.8151 84.8556 17.7827C84.8014 16.7773 84.9364 15.857 85.2592 15.0222C85.595 14.173 86.0732 13.4454 86.6945 12.8396C87.3152 12.2203 88.0523 11.7307 88.9049 11.3714C89.7568 10.9985 90.6788 10.785 91.6705 10.7316ZM91.9887 13.9846C91.0649 14.0344 90.3138 14.2615 89.7402 14.742C89.1667 15.2225 88.6178 15.9062 88.4979 16.7164L94.5817 15.0712C94.291 14.7327 93.9286 14.4595 93.4951 14.2512C93.0615 14.043 92.5592 13.9539 91.9887 13.9846Z" fill="black"/>
<path fill-rule="evenodd" clip-rule="evenodd" d="M43.2863 10.7587C44.2588 10.7587 45.1663 10.9188 46.0028 11.2461C46.8309 11.5702 47.5527 12.0285 48.1625 12.6213C48.7863 13.2086 49.2668 13.9125 49.602 14.7268C49.9479 15.5439 50.1173 16.4289 50.1173 17.3756C50.1173 18.3309 49.9472 19.2203 49.6011 20.0379C49.2663 20.8517 48.7886 21.5601 48.1667 22.1561L48.1659 22.1553C47.5554 22.7498 46.8325 23.2092 46.0028 23.5339C45.1662 23.8612 44.2589 24.0213 43.2863 24.0213C42.3225 24.0213 41.4195 23.861 40.5834 23.5339C39.753 23.2089 39.0248 22.7501 38.4051 22.1561L38.4025 22.1528C37.7938 21.5592 37.3126 20.8562 36.9597 20.0489L36.958 20.0439C36.6104 19.2248 36.4401 18.333 36.4401 17.3756C36.4401 16.4271 36.6107 15.5402 36.958 14.7217L36.9597 14.7166C37.313 13.9086 37.7951 13.2088 38.4059 12.6238C39.0255 12.0301 39.7532 11.571 40.5834 11.2461C41.4194 10.919 42.3225 10.7587 43.2863 10.7587ZM43.2863 14.3045C42.8506 14.3045 42.4655 14.3842 42.1244 14.5364L42.1193 14.5389C41.7817 14.685 41.4967 14.8898 41.2587 15.1542C41.0166 15.4231 40.8227 15.7455 40.6798 16.1274C40.5494 16.5015 40.481 16.9161 40.481 17.3756C40.481 17.8553 40.5495 18.2845 40.6798 18.6678L40.7357 18.8083C40.8718 19.1294 41.0469 19.4058 41.2587 19.6411C41.4969 19.9056 41.7825 20.1157 42.121 20.2715C42.463 20.4151 42.8494 20.4907 43.2863 20.4907C43.7258 20.4907 44.1069 20.414 44.4381 20.2707C44.7871 20.1141 45.0771 19.9042 45.314 19.6411C45.5538 19.3746 45.7411 19.0552 45.8742 18.6772L45.8767 18.6712C46.0172 18.2874 46.0908 17.8572 46.0908 17.3756C46.0908 16.9157 46.0174 16.5013 45.8776 16.1274L45.8742 16.1181C45.7411 15.74 45.5538 15.4206 45.314 15.1542C45.0779 14.892 44.7895 14.6874 44.4423 14.5406L44.4355 14.5381L44.4288 14.5347C44.1 14.3845 43.7221 14.3046 43.2863 14.3045Z" fill="black"/>
<path d="M55.426 17.6777C55.426 18.1722 55.4868 18.5937 55.6071 18.9412C55.7273 19.2752 55.8873 19.5491 56.0877 19.7629C56.2881 19.9633 56.5152 20.1103 56.769 20.2038C57.0363 20.284 57.3039 20.324 57.5712 20.324C58.1726 20.324 58.6872 20.144 59.1148 19.7832C59.5558 19.409 59.9771 18.8956 59.9771 17.445V11.4839H64.1467V23.3714H60.9969L60.0423 22.6258C59.7315 22.8331 59.2704 23.1813 58.5935 23.4315C57.9788 23.6586 57.3973 23.7725 56.8494 23.7725C56.0476 23.7725 55.3061 23.6517 54.6245 23.4111C53.9429 23.1839 53.3476 22.8572 52.8398 22.4295C52.3453 22.0018 51.9577 21.4934 51.677 20.9054C51.3965 20.3175 51.2565 19.6695 51.2564 18.9615V11.4839H55.426V17.6777Z" fill="black"/>
<path d="M25.1602 14.6405L31.1399 13.0385V7.96094H35.2993V23.5034H31.1399V16.9931L25.1602 18.5951V23.5034H21V7.96094H25.1602V14.6405Z" fill="black"/>
<path d="M79.4759 11.0701C80.0238 11.0835 80.5522 11.2104 81.0601 11.4509C81.5813 11.6781 82.042 12.0127 82.4429 12.4537C82.8438 12.8814 83.1645 13.4029 83.4051 14.0176C83.6456 14.6324 83.7664 15.3208 83.7664 16.0825V23.3595H79.5961V16.1621C79.596 15.6944 79.4761 15.3066 79.2355 14.9993C79.0084 14.6921 78.6743 14.5382 78.2336 14.5381C77.8194 14.5381 77.4986 14.6721 77.2714 14.9392C77.0576 15.2064 76.9168 15.5473 76.8499 15.9615V23.3595H72.6804V16.1621C72.6804 15.6944 72.5596 15.3066 72.319 14.9993C72.0919 14.6921 71.7579 14.5381 71.3171 14.5381C71.1033 14.5381 70.9163 14.5921 70.756 14.6989C70.5957 14.7924 70.4618 14.9194 70.3549 15.0797C70.2479 15.2267 70.1541 15.4005 70.0739 15.601C70.0071 15.788 69.9602 15.975 69.9334 16.1621V23.3595H65.7639V11.4712H68.8722L69.6533 12.3133C70.0542 11.8724 70.515 11.5585 71.0361 11.3714C71.5573 11.1843 72.0719 11.0835 72.5797 11.0701C73.181 11.0567 73.7626 11.1906 74.3238 11.4712C74.8985 11.7519 75.393 12.1596 75.8073 12.6941C76.3017 12.0794 76.8764 11.6517 77.5312 11.4111C78.1993 11.1706 78.8478 11.0568 79.4759 11.0701Z" fill="black"/>
</svg>
