<svg width="72" height="16" viewBox="0 0 72 16" fill="none" xmlns="http://www.w3.org/2000/svg">
<path d="M63.1472 11.4272C63.749 12.1105 64.5883 12.4231 65.6651 12.3651C66.4164 12.3246 67.0551 12.1772 67.5812 11.9228C68.1068 11.6559 68.5936 11.253 69.0418 10.714L71.8527 11.4993C71.2694 12.9575 70.0086 14.015 69.228 14.5129C68.3388 15.0254 67.369 15.3246 66.1296 15.3913C65.1154 15.446 64.1812 15.3519 63.3267 15.1092C62.473 14.8789 61.7253 14.5174 61.0834 14.0246C60.4416 13.5318 59.9314 12.9189 59.5529 12.1859C59.1736 11.4403 58.9584 10.5918 58.9072 9.64025C58.8574 8.71374 58.9811 7.86576 59.2787 7.09634C59.5881 6.31371 60.0292 5.64327 60.6018 5.08506C61.1738 4.51429 61.8527 4.06334 62.6384 3.73222C63.4235 3.38855 64.273 3.1921 65.1871 3.14285C66.1261 3.09226 66.9978 3.1897 67.802 3.43519C68.6056 3.66813 69.3033 4.03235 69.8951 4.52785C70.4868 5.02335 70.9599 5.64453 71.3139 6.39141C71.6806 7.13761 71.8899 7.99275 71.9419 8.95682L63.1472 11.4272ZM65.4804 6.14065C64.629 6.18652 63.9371 6.39528 63.4085 6.83813C62.8798 7.281 62.3743 7.91141 62.2639 8.6582L67.87 7.14202C67.602 6.82998 67.2682 6.57799 66.8687 6.38606C66.4689 6.19412 66.0064 6.11232 65.4804 6.14065Z" fill="white"/>
<path d="M51.5291 14.78H47.6863V8.14762C47.6863 7.71656 47.5754 7.35938 47.3536 7.0761C47.1443 6.79282 46.8364 6.65119 46.43 6.65119C46.2329 6.65119 46.0605 6.70044 45.9127 6.79899C45.7649 6.8852 45.6417 7.00219 45.5431 7.14999C45.4446 7.28547 45.3584 7.44559 45.2845 7.63033C45.223 7.80277 45.1799 7.9752 45.1552 8.14762V14.78H41.3125V3.82457H44.1772L44.8966 4.6005C45.266 4.19406 45.6909 3.90463 46.1713 3.73219C46.6516 3.55977 47.1258 3.46739 47.5939 3.45507C48.1481 3.44276 48.6838 3.56592 49.2012 3.82457C49.7308 4.08321 50.1865 4.45885 50.5682 4.95151C51.0239 4.38496 51.5537 3.99083 52.1572 3.76914C52.7729 3.54745 53.3703 3.44276 53.9492 3.45507C54.4541 3.46739 54.9406 3.58439 55.4086 3.8061C55.889 4.01547 56.3139 4.32337 56.6835 4.72982C57.0528 5.12395 57.3484 5.60428 57.5702 6.17085C57.7919 6.7374 57.9027 7.3717 57.9027 8.07373V14.78H54.0599V8.14762C54.0599 7.71656 53.9492 7.35938 53.7274 7.0761C53.5181 6.79282 53.2101 6.65119 52.8037 6.65119C52.4219 6.65119 52.1263 6.77435 51.9169 7.02068C51.7198 7.26701 51.5905 7.58108 51.5291 7.96289V14.78Z" fill="white"/>
<path d="M36.0408 14.1047C35.7543 14.2957 35.3298 14.6168 34.706 14.8473C34.1396 15.0567 33.6037 15.1614 33.0987 15.1614C32.3598 15.1614 31.6761 15.0505 31.048 14.8288C30.4198 14.6194 29.8719 14.3177 29.4038 13.9236C28.9481 13.5294 28.591 13.0614 28.3322 12.5195C28.0736 11.9776 27.9443 11.3802 27.9443 10.7275V3.83643H31.7871V9.54509C31.7871 10.0008 31.8425 10.3888 31.9534 10.709C32.0642 11.0169 32.212 11.2694 32.3967 11.4664C32.5816 11.6512 32.7909 11.7867 33.0248 11.8729C33.2712 11.9468 33.5176 11.9837 33.7639 11.9837C34.3182 11.9837 34.7924 11.8175 35.1864 11.4849C35.5928 11.1401 35.9808 10.6671 35.9808 9.3302V3.83643H39.8236V14.7919H36.9205L36.0408 14.1047Z" fill="white"/>
<path d="M3.89398 6.7462L9.40484 5.26963V0.589844H13.2383V14.9135H9.40484V8.91432L3.89398 10.3909V14.9135H0.0605469V0.589844H3.89398V6.7462Z" fill="white"/>
<path d="M14.7666 9.26602C14.7666 8.45028 14.9131 7.69729 15.206 7.00705C15.5078 6.31682 15.9161 5.72518 16.4309 5.23216C16.9546 4.73017 17.5715 4.34022 18.2815 4.06234C18.9916 3.78445 19.7638 3.64551 20.5982 3.64551C21.4414 3.64551 22.2181 3.78445 22.9282 4.06234C23.6383 4.34022 24.2507 4.73017 24.7654 5.23216C25.2891 5.72518 25.693 6.31682 25.977 7.00705C26.27 7.69729 26.4165 8.45028 26.4165 9.26602C26.4165 10.0907 26.27 10.8482 25.977 11.5384C25.693 12.2287 25.2891 12.8248 24.7654 13.3268C24.2507 13.8288 23.6383 14.2187 22.9282 14.4966C22.2181 14.7745 21.4414 14.9134 20.5982 14.9134C19.7638 14.9134 18.9916 14.7745 18.2815 14.4966C17.5715 14.2187 16.9546 13.8288 16.4309 13.3268C15.9161 12.8248 15.5078 12.2287 15.206 11.5384C14.9131 10.8482 14.7666 10.0907 14.7666 9.26602ZM17.5359 9.26602C17.5359 9.75903 17.6069 10.2117 17.7489 10.6241C17.8998 11.0275 18.1084 11.3771 18.3747 11.6729C18.641 11.9687 18.9606 12.2018 19.3334 12.3721C19.7149 12.5334 20.1366 12.6141 20.5982 12.6141C21.0598 12.6141 21.4769 12.5334 21.8497 12.3721C22.2313 12.2018 22.5554 11.9687 22.8216 11.6729C23.0879 11.3771 23.292 11.0275 23.4341 10.6241C23.585 10.2117 23.6604 9.75903 23.6604 9.26602C23.6604 8.79091 23.585 8.35167 23.4341 7.94828C23.292 7.54491 23.0879 7.1953 22.8216 6.89949C22.5554 6.60368 22.2313 6.37509 21.8497 6.21373C21.4769 6.04341 21.0598 5.95825 20.5982 5.95825C20.1366 5.95825 19.7149 6.04341 19.3334 6.21373C18.9606 6.37509 18.641 6.60368 18.3747 6.89949C18.1084 7.1953 17.8998 7.54491 17.7489 7.94828C17.6069 8.35167 17.5359 8.79091 17.5359 9.26602Z" fill="white" stroke="white" stroke-width="0.954907"/>
</svg>
