<svg width="120" height="32" viewBox="0 0 120 32" fill="none" xmlns="http://www.w3.org/2000/svg">
<path d="M94.2443 22.3891C95.5303 22.3891 96.6222 21.4879 97.9081 19.1983H98.5875C96.9618 22.9493 94.8752 24.9223 92.2062 24.9223C89.707 24.9223 87.863 23.3634 87.863 20.27C87.863 15.6421 91.7209 10.9654 95.7001 10.9654C97.714 10.9654 99 12.0859 99 13.7422C99 16.7869 95.4818 18.5406 92.2547 18.9303C92.2304 19.2957 92.2062 19.6123 92.2062 19.929C92.2062 21.7314 93.0554 22.3891 94.2443 22.3891ZM95.6759 12.232C94.2686 12.232 92.9341 15.228 92.4245 17.8586C94.5597 17.1279 96.3553 15.2524 96.3553 13.2551C96.3553 12.5487 96.1854 12.232 95.6759 12.232Z" fill="#6F00FF"/>
<path d="M70.1406 24.5325H65.7974L68.5635 16.4945C68.976 15.3497 69.0959 14.7652 69.0959 14.3267C69.0959 14.0831 68.9989 13.9857 68.829 13.9857C68.0668 13.9857 66.2024 17.3916 65.0188 21.1128L64.9536 20.4927C66.9731 13.1898 69.6554 11.0628 71.9119 11.0628C73.2706 11.0628 73.853 11.9397 73.853 12.914C73.853 13.7909 73.2706 14.9844 72.5913 16.5432L71.5237 19.32C73.7317 14.4729 75.8183 11.0385 78.4631 11.0385C79.7005 11.0385 80.3799 12.1589 80.3799 13.0845C80.3799 14.5946 79.5549 16.2753 78.3175 19.32C80.477 14.4241 82.7578 11.0385 85.4025 11.0385C87.0282 11.0385 87.8289 12.0615 87.8289 13.3524C87.8289 14.7652 86.5429 17.5906 85.6209 19.6123C85.2327 20.5379 84.6018 21.9262 84.6018 22.3647C84.6018 22.7057 84.7231 22.8031 84.9415 22.8031C85.6451 22.8031 86.8804 21.3869 88.2395 17.7153V18.5347C87.0387 22.0973 85.5238 24.8979 82.8791 24.8979C80.9137 24.8979 80.2829 23.9236 80.2829 22.7544C80.2829 21.9506 80.7681 21.3173 81.5688 19.2956C82.5394 16.7868 83.2673 14.96 83.2673 14.4972C83.2673 14.1562 83.146 13.9857 82.8791 13.9857C82.4666 13.9857 81.2291 14.7408 79.3608 18.8085C78.6815 20.2456 77.8807 22.1211 77.0073 24.5325H72.6641L74.314 20.343C75.1632 18.2239 76.3279 15.2767 76.3279 14.4972C76.3279 14.1562 76.2066 13.9857 75.9397 13.9857C75.3816 13.9857 73.5375 15.3254 70.1406 24.5325Z" fill="#6F00FF"/>
<path d="M58.7956 25.1772C57.4433 25.1772 56.2707 24.9194 55.2778 24.4039C54.3021 23.8711 53.5488 23.158 53.0182 22.2644C52.4875 21.3536 52.2222 20.3483 52.2222 19.2485V11.6444H56.2022V19.1454C56.2022 19.6094 56.3135 20.039 56.536 20.4343C56.7585 20.8123 57.0581 21.1216 57.4347 21.3622C57.8284 21.5856 58.2735 21.6973 58.7699 21.6973C59.2492 21.6973 59.6772 21.5856 60.0538 21.3622C60.4475 21.1216 60.7557 20.8123 60.9782 20.4343C61.2007 20.039 61.312 19.6094 61.312 19.1454V11.6444H65.292V19.2485C65.292 20.3483 65.0352 21.3536 64.5217 22.2644C64.0081 23.158 63.2635 23.8711 62.2877 24.4039C61.3291 24.9194 60.1651 25.1772 58.7956 25.1772Z" fill="black"/>
<path d="M44.4863 25.1771C43.134 25.1771 41.9186 24.8763 40.8401 24.2749C39.7617 23.6734 38.9058 22.8486 38.2724 21.8003C37.6561 20.7521 37.348 19.5749 37.348 18.2689C37.348 16.9457 37.6561 15.7686 38.2724 14.7375C38.9058 13.6893 39.7617 12.8644 40.8401 12.263C41.9186 11.6443 43.134 11.335 44.4863 11.335C45.8387 11.335 47.0455 11.6443 48.1069 12.263C49.1853 12.8644 50.0327 13.6893 50.6489 14.7375C51.2823 15.7686 51.599 16.9457 51.599 18.2689C51.599 19.5749 51.2823 20.7521 50.6489 21.8003C50.0327 22.8486 49.1853 23.6734 48.1069 24.2749C47.0284 24.8763 45.8216 25.1771 44.4863 25.1771ZM44.4863 21.6972C45.1197 21.6972 45.6675 21.5426 46.1297 21.2332C46.5919 20.9239 46.9514 20.5115 47.2082 19.996C47.4649 19.4804 47.5933 18.8962 47.5933 18.2431C47.5933 17.6073 47.4649 17.0316 47.2082 16.5161C46.9514 16.0006 46.5919 15.5881 46.1297 15.2788C45.6675 14.9695 45.1197 14.8148 44.4863 14.8148C43.853 14.8148 43.2966 14.9695 42.8173 15.2788C42.3551 15.5881 41.9956 16.0006 41.7389 16.5161C41.4821 17.0316 41.3537 17.6073 41.3537 18.2431C41.3537 18.8962 41.4821 19.4804 41.7389 19.996C41.9956 20.5115 42.3551 20.9239 42.8173 21.2332C43.2966 21.5426 43.853 21.6972 44.4863 21.6972Z" fill="black"/>
<path d="M21 24.8679V6.82422H25.3138V13.9128H32.3238V6.82422H36.6376V24.8679H32.3238V17.5215H25.3138V24.8679H21Z" fill="black"/>
</svg>
