<svg width="36" height="36" viewBox="0 0 36 36" fill="none" xmlns="http://www.w3.org/2000/svg">
<rect width="36" height="36" rx="18" fill="white"/>
<path fill-rule="evenodd" clip-rule="evenodd" d="M24.0337 14.0087C24.6643 13.9747 25.2498 14.0403 25.7899 14.2051C26.3295 14.3615 26.7978 14.6062 27.1951 14.9389C27.5925 15.2717 27.9105 15.6891 28.1484 16.1907C28.3946 16.6917 28.5351 17.266 28.57 17.9133L22.6636 19.5726C23.0678 20.0314 23.6317 20.2416 24.3548 20.2026C24.8592 20.1754 25.2883 20.0759 25.6417 19.9051C25.9945 19.7259 26.3213 19.4552 26.6222 19.0933L28.5103 19.6207C28.1186 20.6 27.2715 21.3107 26.7473 21.6451C26.1503 21.9892 25.4988 22.19 24.6664 22.2348C23.9854 22.2715 23.3578 22.2082 22.7841 22.0452C22.2108 21.8906 21.7088 21.6476 21.2777 21.3167C20.8467 20.9857 20.5038 20.5744 20.2496 20.0822C19.995 19.5815 19.8504 19.0116 19.8159 18.3726C19.7824 17.7504 19.8659 17.1809 20.0658 16.6641C20.2736 16.1386 20.5695 15.6882 20.9541 15.3134C21.3382 14.9301 21.7944 14.627 22.3221 14.4047C22.8493 14.1739 23.42 14.0418 24.0337 14.0087ZM24.2307 16.022C23.6589 16.0528 23.1941 16.1934 22.8391 16.4908C22.4841 16.7881 22.1444 17.2113 22.0702 17.7127L25.8355 16.6945C25.6555 16.485 25.4313 16.3159 25.163 16.187C24.8946 16.0581 24.5838 16.003 24.2307 16.022Z" fill="#A696FF"/>
<path d="M16.4864 14.2182C16.8256 14.2265 17.1526 14.305 17.4669 14.4539C17.7895 14.5945 18.0746 14.8016 18.3227 15.0745C18.5709 15.3392 18.7693 15.6619 18.9182 16.0424C19.0671 16.4229 19.1419 16.849 19.1419 17.3204V21.8242H16.5608V17.3696C16.5608 17.0802 16.4865 16.8402 16.3377 16.65C16.1971 16.4599 15.9903 16.3646 15.7175 16.3645C15.4612 16.3645 15.2626 16.4475 15.122 16.6128C14.9897 16.7782 14.9026 16.9892 14.8612 17.2455V21.8242H12.2807V17.3696C12.2806 17.0802 12.2059 16.8402 12.057 16.65C11.9164 16.4599 11.7097 16.3646 11.4369 16.3645C11.3046 16.3645 11.1889 16.398 11.0896 16.4641C10.9904 16.5219 10.9075 16.6005 10.8414 16.6998C10.7752 16.7907 10.7171 16.8983 10.6675 17.0224C10.6262 17.1381 10.5971 17.2539 10.5805 17.3696V21.8242H8V14.4665H9.92376L10.4072 14.9876C10.6553 14.7147 10.9405 14.5204 11.263 14.4047C11.5855 14.2889 11.9041 14.2265 12.2183 14.2182C12.5905 14.2099 12.9504 14.2928 13.2978 14.4665C13.6534 14.6401 13.9595 14.8925 14.2159 15.2233C14.5219 14.8429 14.8776 14.5782 15.2828 14.4293C15.6963 14.2804 16.0977 14.2099 16.4864 14.2182Z" fill="#A696FF"/>
</svg>
