<svg width="28" height="28" viewBox="0 0 28 28" fill="none" xmlns="http://www.w3.org/2000/svg">
<rect width="28" height="28" rx="14" fill="white"/>
<path d="M20.4492 10.7871C21.3956 10.7871 22 11.3035 22 12.0664C21.9998 13.4686 20.3465 14.2765 18.8301 14.4561C18.8187 14.6242 18.8076 14.7702 18.8076 14.916C18.8077 15.7459 19.2062 16.0487 19.7646 16.0488C20.369 16.0488 20.883 15.6337 21.4873 14.5791H21.8057C21.0418 16.3066 20.0617 17.2156 18.8076 17.2158C17.6332 17.2158 16.7658 16.4978 16.7656 15.0732C16.7656 14.9503 16.7724 14.8268 16.7842 14.7041C16.2436 16.1337 15.5553 17.2041 14.4238 17.2041C13.5005 17.204 13.2041 16.7552 13.2041 16.2168C13.2041 15.8466 13.4324 15.555 13.8086 14.624C14.2647 13.4685 14.6064 12.6263 14.6064 12.4131C14.6064 12.2562 14.5492 12.1777 14.4238 12.1777C14.2296 12.1782 13.648 12.527 12.7705 14.3994C12.4513 15.0613 12.0755 15.9256 11.665 17.0361H9.62402L10.3994 15.1064C10.7985 14.1304 11.3457 12.7721 11.3457 12.4131C11.3456 12.2563 11.2884 12.1778 11.1631 12.1777C10.9008 12.1777 10.0339 12.7953 8.4375 17.0361H6.39648L7.69629 13.333C7.89004 12.8059 7.94628 12.5369 7.94629 12.335C7.94629 12.2228 7.90111 12.1777 7.82129 12.1777C7.46308 12.1777 6.55621 13.7381 6 15.4521V15.1748C6.94909 11.8112 8.21006 10.8311 9.27051 10.8311C9.90878 10.8312 10.1826 11.2359 10.1826 11.6846C10.1824 12.0883 9.90893 12.6379 9.58984 13.3555L9.08789 14.6348C10.1255 12.4024 11.1059 10.8205 12.3486 10.8203C12.9302 10.8203 13.25 11.3364 13.25 11.7627C13.25 12.4583 12.8618 13.2324 12.2803 14.6348C13.2951 12.3797 14.3674 10.8203 15.6104 10.8203C16.374 10.8204 16.7498 11.2914 16.75 11.8857C16.75 12.5365 16.1462 13.8383 15.7129 14.7695C15.5305 15.1958 15.2335 15.835 15.2334 16.0371C15.2334 16.1942 15.2909 16.2393 15.3936 16.2393C15.7239 16.2391 16.3026 15.5876 16.9404 13.9004C17.4384 12.2173 18.9253 10.7871 20.4492 10.7871ZM20.4375 11.3701C19.7763 11.3705 19.1496 12.7505 18.9102 13.9619C19.9134 13.6253 20.7568 12.7616 20.7568 11.8418C20.7568 11.5164 20.677 11.3701 20.4375 11.3701Z" fill="#A696FF"/>
</svg>
