<svg width="36" height="36" viewBox="0 0 36 36" fill="none" xmlns="http://www.w3.org/2000/svg">
<rect width="36" height="36" rx="18" fill="white"/>
<path d="M26.292 13.8691C27.5087 13.8693 28.2852 14.5329 28.2852 15.5137C28.2851 17.3166 26.1598 18.3551 24.21 18.5859C24.1953 18.8023 24.1807 18.9902 24.1807 19.1777C24.1808 20.2449 24.6938 20.6348 25.4121 20.6348C26.189 20.6347 26.849 20.1008 27.626 18.7451H28.0361C27.0539 20.9661 25.7932 22.1347 24.1807 22.1348C22.6706 22.1348 21.5566 21.2108 21.5566 19.3789C21.5567 19.2255 21.5639 19.072 21.5781 18.9189C20.8838 20.7506 19.9973 22.1191 18.5459 22.1191C17.3584 22.1191 16.9775 21.542 16.9775 20.8496C16.9777 20.3738 17.2703 19.9986 17.7539 18.8018C18.3403 17.316 18.7803 16.234 18.7803 15.96C18.7802 15.7582 18.7071 15.6573 18.5459 15.6572C18.2967 15.6572 17.5488 16.1048 16.4199 18.5137C16.0095 19.3647 15.5258 20.4755 14.998 21.9033H12.374L13.3701 19.4219C13.8832 18.1669 14.5869 16.4215 14.5869 15.96C14.5869 15.7581 14.5138 15.6572 14.3525 15.6572C14.015 15.6577 12.9006 16.4523 10.8486 21.9033H8.22461L9.89551 17.1426C10.1446 16.4649 10.2177 16.119 10.2178 15.8594C10.2178 15.7153 10.1591 15.6573 10.0566 15.6572C9.59609 15.6572 8.42997 17.6634 7.71484 19.8672V19.5107C8.93505 15.1861 10.5555 13.9259 11.9189 13.9258C12.7399 13.9258 13.0918 14.4455 13.0918 15.0225C13.0918 15.5417 12.7406 16.2487 12.3301 17.1719L11.6846 18.8164C13.0187 15.9459 14.2799 13.9121 15.8779 13.9121C16.6252 13.9123 17.0359 14.5751 17.0361 15.123C17.0361 16.0174 16.5377 17.0133 15.79 18.8164C17.0948 15.9172 18.4724 13.9123 20.0703 13.9121C21.0526 13.9121 21.5371 14.5177 21.5371 15.2822C21.5371 16.1189 20.7592 17.792 20.2021 18.9893C19.9676 19.5373 19.587 20.3594 19.5869 20.6191C19.5869 20.8211 19.66 20.8789 19.792 20.8789C20.2163 20.8789 20.9601 20.0435 21.7793 17.8789C22.4175 15.712 24.3306 13.8691 26.292 13.8691ZM26.2773 14.6191C25.427 14.6191 24.6204 16.3933 24.3125 17.9512C25.6026 17.5184 26.6875 16.4074 26.6875 15.2246C26.6874 14.8068 26.5849 14.6193 26.2773 14.6191Z" fill="#A696FF"/>
</svg>
