<svg width="194" height="20" viewBox="0 0 194 20" fill="none" xmlns="http://www.w3.org/2000/svg">
<path d="M10 10L184 10" stroke="#D4DAE2" stroke-width="2"/>
<path d="M10 10H12" stroke="#A696FF" stroke-width="2"/>
<circle cx="10" cy="10" r="5" fill="#D4DAE2"/>
<circle cx="68" cy="10" r="5" fill="#D4DAE2"/>
<circle cx="126" cy="10" r="5" fill="#D4DAE2"/>
<circle cx="184" cy="10" r="5" fill="#D4DAE2"/>
<circle cx="10" cy="10" r="10" fill="#6F00FF"/>
<path d="M7.62988 7C9.08207 7.00014 10.2588 8.17766 10.2588 9.62988C10.2587 11.082 9.08199 12.2587 7.62988 12.2588C6.17766 12.2588 5.00013 11.0821 5 9.62988C5 8.17758 6.17758 7 7.62988 7Z" stroke="white" stroke-width="2"/>
<path d="M15.6663 10.6289C16.2186 10.6289 16.6663 10.1812 16.6663 9.62891C16.6663 9.07662 16.2186 8.62891 15.6663 8.62891V10.6289ZM9.83301 9.62891V10.6289H15.6663V9.62891V8.62891H9.83301V9.62891Z" fill="white"/>
<path d="M12.917 11.9622C12.917 12.5145 13.3647 12.9622 13.917 12.9622C14.4693 12.9622 14.917 12.5145 14.917 11.9622L12.917 11.9622ZM13.917 9.62891L12.917 9.62891L12.917 11.9622L13.917 11.9622L14.917 11.9622L14.917 9.62891L13.917 9.62891Z" fill="white"/>
</svg>
