<svg width="194" height="20" viewBox="0 0 194 20" fill="none" xmlns="http://www.w3.org/2000/svg">
<path d="M10 10L184 10" stroke="#D4DAE2" stroke-width="2"/>
<path d="M10 10H126" stroke="#A696FF" stroke-width="2"/>
<circle cx="10" cy="10" r="5" fill="#A696FF"/>
<circle cx="68" cy="10" r="5" fill="#A696FF"/>
<circle cx="126" cy="10" r="5" fill="#D4DAE2"/>
<circle cx="184" cy="10" r="5" fill="#D4DAE2"/>
<circle cx="126" cy="10" r="10" fill="#6F00FF"/>
<path d="M123.63 7C125.082 7.00014 126.259 8.17766 126.259 9.62988C126.259 11.082 125.082 12.2587 123.63 12.2588C122.178 12.2588 121 11.0821 121 9.62988C121 8.17758 122.178 7 123.63 7Z" stroke="white" stroke-width="2"/>
<path d="M131.666 10.6289C132.219 10.6289 132.666 10.1812 132.666 9.62891C132.666 9.07662 132.219 8.62891 131.666 8.62891V10.6289ZM125.833 9.62891V10.6289H131.666V9.62891V8.62891H125.833V9.62891Z" fill="white"/>
<path d="M128.917 11.9622C128.917 12.5145 129.365 12.9622 129.917 12.9622C130.469 12.9622 130.917 12.5145 130.917 11.9622L128.917 11.9622ZM129.917 9.62891L128.917 9.62891L128.917 11.9622L129.917 11.9622L130.917 11.9622L130.917 9.62891L129.917 9.62891Z" fill="white"/>
</svg>
