<svg width="194" height="20" viewBox="0 0 194 20" fill="none" xmlns="http://www.w3.org/2000/svg">
<path d="M10 10L184 10" stroke="#D4DAE2" stroke-width="2"/>
<path d="M10 10H68" stroke="#A696FF" stroke-width="2"/>
<circle cx="10" cy="10" r="5" fill="#A696FF"/>
<circle cx="68" cy="10" r="5" fill="#D4DAE2"/>
<circle cx="126" cy="10" r="5" fill="#D4DAE2"/>
<circle cx="184" cy="10" r="5" fill="#D4DAE2"/>
<circle cx="68" cy="10" r="10" fill="#6F00FF"/>
<path d="M65.6299 7C67.0821 7.00014 68.2588 8.17766 68.2588 9.62988C68.2587 11.082 67.082 12.2587 65.6299 12.2588C64.1777 12.2588 63.0001 11.0821 63 9.62988C63 8.17758 64.1776 7 65.6299 7Z" stroke="white" stroke-width="2"/>
<path d="M73.6663 10.6289C74.2186 10.6289 74.6663 10.1812 74.6663 9.62891C74.6663 9.07662 74.2186 8.62891 73.6663 8.62891V10.6289ZM67.833 9.62891V10.6289H73.6663V9.62891V8.62891H67.833V9.62891Z" fill="white"/>
<path d="M70.917 11.9622C70.917 12.5145 71.3647 12.9622 71.917 12.9622C72.4693 12.9622 72.917 12.5145 72.917 11.9622L70.917 11.9622ZM71.917 9.62891L70.917 9.62891L70.917 11.9622L71.917 11.9622L72.917 11.9622L72.917 9.62891L71.917 9.62891Z" fill="white"/>
</svg>
