<svg width="194" height="20" viewBox="0 0 194 20" fill="none" xmlns="http://www.w3.org/2000/svg">
<path d="M10 10L184 10" stroke="#D4DAE2" stroke-width="2"/>
<path d="M10 10H179" stroke="#A696FF" stroke-width="2"/>
<circle cx="10" cy="10" r="5" fill="#A696FF"/>
<circle cx="68" cy="10" r="5" fill="#A696FF"/>
<circle cx="126" cy="10" r="5" fill="#A696FF"/>
<circle cx="184" cy="10" r="5" fill="#D4DAE2"/>
<circle cx="184" cy="10" r="10" fill="#6F00FF"/>
<path d="M181.63 7C183.082 7.00014 184.259 8.17766 184.259 9.62988C184.259 11.082 183.082 12.2587 181.63 12.2588C180.178 12.2588 179 11.0821 179 9.62988C179 8.17758 180.178 7 181.63 7Z" stroke="white" stroke-width="2"/>
<path d="M189.666 10.6289C190.219 10.6289 190.666 10.1812 190.666 9.62891C190.666 9.07662 190.219 8.62891 189.666 8.62891V10.6289ZM183.833 9.62891V10.6289H189.666V9.62891V8.62891H183.833V9.62891Z" fill="white"/>
<path d="M186.917 11.9622C186.917 12.5145 187.365 12.9622 187.917 12.9622C188.469 12.9622 188.917 12.5145 188.917 11.9622L186.917 11.9622ZM187.917 9.62891L186.917 9.62891L186.917 11.9622L187.917 11.9622L188.917 11.9622L188.917 9.62891L187.917 9.62891Z" fill="white"/>
</svg>
