<svg width="18" height="18" viewBox="0 0 18 18" fill="none" xmlns="http://www.w3.org/2000/svg">
<path d="M14.3281 1.85251C15.3284 1.81213 16.1506 2.63447 16.1103 3.63478L15.9197 8.35389C15.8936 8.99921 15.625 9.61104 15.1684 10.0678L8.91221 16.324C8.24284 16.9934 7.15793 16.9932 6.48844 16.324L1.63951 11.4751C0.970036 10.8056 0.969346 9.72011 1.63882 9.05064L7.89505 2.7944C8.35183 2.33778 8.9643 2.0699 9.60965 2.04379L14.3281 1.85251ZM12.6017 5.11183C11.9323 4.44238 10.8467 4.44172 10.1773 5.11114C9.5078 5.78061 9.50849 6.86614 10.178 7.53561C10.8475 8.20481 11.9324 8.20499 12.6017 7.53561C13.2711 6.86622 13.2709 5.78131 12.6017 5.11183Z" fill="white"/>
</svg>
