<svg width="24" height="24" viewBox="0 0 24 24" fill="none" xmlns="http://www.w3.org/2000/svg">
<path d="M11 21V3C11 2.44772 11.4477 2 12 2C12.5523 2 13 2.44772 13 3V21C13 21.5523 12.5523 22 12 22C11.4477 22 11 21.5523 11 21Z" fill="#8996A9"/>
<path d="M11.3027 2.2832C11.6908 1.90584 12.3091 1.90584 12.6972 2.2832L19.6972 9.08887C20.0932 9.47387 20.1018 10.107 19.7168 10.5029C19.3318 10.8989 18.6987 10.9074 18.3027 10.5225L12 4.39453L5.69724 10.5225C5.30127 10.9074 4.66818 10.8989 4.28318 10.5029C3.89819 10.107 3.90677 9.47387 4.30271 9.08887L11.3027 2.2832Z" fill="#8996A9"/>
</svg>
