<svg width="24" height="24" viewBox="0 0 24 24" fill="none" xmlns="http://www.w3.org/2000/svg">
<path d="M22 12C22 17.5228 17.5228 22 12 22C6.47715 22 2 17.5228 2 12C2 6.47715 6.47715 2 12 2C17.5228 2 22 6.47715 22 12Z" fill="white" fill-opacity="0.8"/>
<path d="M12.4346 7.43457C12.747 7.12215 13.253 7.12215 13.5654 7.43457C13.8778 7.74699 13.8778 8.25301 13.5654 8.56543L10.1309 12L13.5654 15.4346C13.8778 15.747 13.8778 16.253 13.5654 16.5654C13.253 16.8778 12.747 16.8778 12.4346 16.5654L8.43457 12.5654C8.12215 12.253 8.12215 11.747 8.43457 11.4346L12.4346 7.43457Z" fill="#1B1E22"/>
</svg>
