<svg width="24" height="24" viewBox="0 0 24 24" fill="none" xmlns="http://www.w3.org/2000/svg">
<path d="M22 12C22 17.5228 17.5228 22 12 22C6.47715 22 2 17.5228 2 12C2 6.47715 6.47715 2 12 2C17.5228 2 22 6.47715 22 12Z" fill="white" fill-opacity="0.8"/>
<path d="M11.5654 7.43457C11.253 7.12215 10.747 7.12215 10.4346 7.43457C10.1222 7.74699 10.1222 8.25301 10.4346 8.56543L13.8691 12L10.4346 15.4346C10.1222 15.747 10.1222 16.253 10.4346 16.5654C10.747 16.8778 11.253 16.8778 11.5654 16.5654L15.5654 12.5654C15.8778 12.253 15.8778 11.747 15.5654 11.4346L11.5654 7.43457Z" fill="#1B1E22"/>
</svg>
