<svg width="24" height="24" viewBox="0 0 24 24" fill="none" xmlns="http://www.w3.org/2000/svg">
<path d="M17.1299 5.16003C15.699 5.16003 14.3451 5.50737 13.1399 6.12641L12.337 6.71524C12.1363 6.86239 11.8634 6.86239 11.6628 6.71524L10.8599 6.12641C9.65468 5.50737 8.30076 5.16003 6.86988 5.16003C5.68369 5.16003 4.5504 5.39873 3.51087 5.83304C3.11655 5.99779 2.87988 6.3951 2.87988 6.82245V16.2754C2.87988 17.1283 3.79454 17.6918 4.61842 17.4713C5.33855 17.2786 6.09287 17.1762 6.86988 17.1762C8.48347 17.1762 9.99917 17.6179 11.3141 18.3928C11.7357 18.6413 12.264 18.6413 12.6856 18.3928C14.0006 17.6179 15.5163 17.1762 17.1299 17.1762C17.9069 17.1762 18.6612 17.2786 19.3814 17.4713C20.2052 17.6918 21.1199 17.1283 21.1199 16.2754V6.82245C21.1199 6.3951 20.8832 5.99779 20.4889 5.83304C19.4494 5.39873 18.3161 5.16003 17.1299 5.16003Z" fill="#B7C0CD"/>
</svg>
