<svg width="24" height="24" viewBox="0 0 24 24" fill="none" xmlns="http://www.w3.org/2000/svg">
<path d="M18.2929 4.29302C18.6834 3.90249 19.3164 3.90249 19.707 4.29302C20.0975 4.68354 20.0975 5.31655 19.707 5.70708L5.70696 19.7071C5.31643 20.0976 4.68342 20.0976 4.29289 19.7071C3.90237 19.3166 3.90237 18.6835 4.29289 18.293L18.2929 4.29302Z" fill="#8996A9"/>
<path d="M4.29289 4.29302C4.68342 3.90249 5.31643 3.90249 5.70696 4.29302L19.707 18.293C20.0975 18.6835 20.0975 19.3166 19.707 19.7071C19.3164 20.0976 18.6834 20.0976 18.2929 19.7071L4.29289 5.70708C3.90237 5.31655 3.90237 4.68354 4.29289 4.29302Z" fill="#8996A9"/>
</svg>
