<svg width="24" height="24" viewBox="0 0 24 24" fill="none" xmlns="http://www.w3.org/2000/svg">
<path d="M22 11.9854C22 17.5082 17.5228 21.9854 12 21.9854C6.47715 21.9854 2 17.5082 2 11.9854C2 6.4625 6.47715 1.98535 12 1.98535C17.5228 1.98535 22 6.4625 22 11.9854Z" fill="#FF4D4D"/>
<path d="M8.77265 14.0816L14.4295 8.42475C14.7419 8.11233 15.2482 8.11233 15.5606 8.42475C15.873 8.73717 15.873 9.24343 15.5606 9.55585L9.90375 15.2127C9.59133 15.5251 9.08507 15.5251 8.77265 15.2127C8.46023 14.9003 8.46023 14.394 8.77265 14.0816Z" fill="white"/>
<path d="M9.90375 8.42475L15.5606 14.0816C15.873 14.394 15.873 14.9003 15.5606 15.2127C15.2482 15.5251 14.7419 15.5251 14.4295 15.2127L8.77265 9.55585C8.46023 9.24343 8.46023 8.73717 8.77265 8.42475C9.08507 8.11233 9.59133 8.11233 9.90375 8.42475Z" fill="white"/>
</svg>
