<svg width="24" height="24" viewBox="0 0 24 24" fill="none" xmlns="http://www.w3.org/2000/svg">
<path d="M22 11.985C22 17.5078 17.5228 21.985 12 21.985C6.47715 21.985 2 17.5078 2 11.985C2 6.46214 6.47715 1.98499 12 1.98499C17.5228 1.98499 22 6.46214 22 11.985Z" fill="#D4DAE2"/>
<path d="M8.77265 14.0812L14.4295 8.42439C14.7419 8.11197 15.2482 8.11197 15.5606 8.42439C15.873 8.7368 15.873 9.24306 15.5606 9.55548L9.90375 15.2123C9.59133 15.5248 9.08507 15.5248 8.77265 15.2123C8.46023 14.8999 8.46023 14.3937 8.77265 14.0812Z" fill="white"/>
<path d="M9.90375 8.42439L15.5606 14.0812C15.873 14.3937 15.873 14.8999 15.5606 15.2123C15.2482 15.5248 14.7419 15.5248 14.4295 15.2123L8.77265 9.55548C8.46023 9.24306 8.46023 8.7368 8.77265 8.42439C9.08507 8.11197 9.59133 8.11197 9.90375 8.42439Z" fill="white"/>
</svg>
