<svg width="24" height="24" viewBox="0 0 24 24" fill="none" xmlns="http://www.w3.org/2000/svg">
<path d="M22 11.985C22 17.5078 17.5228 21.985 12 21.985C6.47715 21.985 2 17.5078 2 11.985C2 6.46214 6.47715 1.98499 12 1.98499C17.5228 1.98499 22 6.46214 22 11.985Z" fill="#1B1E22"/>
<path d="M14.3261 8.82622C14.5605 8.59193 14.9395 8.59191 15.1738 8.82622C15.408 9.06053 15.4081 9.43958 15.1738 9.67387L12.8476 12L15.1738 14.3262C15.408 14.5605 15.4081 14.9396 15.1738 15.1739C14.9395 15.4082 14.5605 15.4081 14.3261 15.1739L12 12.8477L9.6738 15.1739C9.4395 15.4081 9.06043 15.4081 8.82615 15.1739C8.59187 14.9396 8.59193 14.5605 8.82615 14.3262L11.1523 12L8.82615 9.67387C8.59193 9.43955 8.59187 9.0605 8.82615 8.82622C9.06043 8.59196 9.43949 8.59201 9.6738 8.82622L12 11.1524L14.3261 8.82622Z" fill="white"/>
</svg>
