<svg width="12" height="12" viewBox="0 0 12 12" fill="none" xmlns="http://www.w3.org/2000/svg">
<path d="M9.14645 2.14645C9.34171 1.95118 9.65822 1.95118 9.85348 2.14645C10.0487 2.34171 10.0487 2.65822 9.85348 2.85348L2.85348 9.85348C2.65822 10.0487 2.34171 10.0487 2.14645 9.85348C1.95118 9.65822 1.95118 9.34171 2.14645 9.14645L9.14645 2.14645Z" fill="#8996A9"/>
<path d="M2.14645 2.14645C2.34171 1.95118 2.65822 1.95118 2.85348 2.14645L9.85348 9.14645C10.0487 9.34171 10.0487 9.65822 9.85348 9.85348C9.65822 10.0487 9.34171 10.0487 9.14645 9.85348L2.14645 2.85348C1.95118 2.65822 1.95118 2.34171 2.14645 2.14645Z" fill="#8996A9"/>
</svg>
