<svg width="24" height="24" viewBox="0 0 24 24" fill="none" xmlns="http://www.w3.org/2000/svg">
<path d="M22 12C22 17.5228 17.5228 22 12 22C6.47715 22 2 17.5228 2 12C2 6.47715 6.47715 2 12 2C17.5228 2 22 6.47715 22 12Z" fill="#8996A9" fill-opacity="0.4"/>
<path d="M8.77265 14.0963L14.4295 8.4394C14.7419 8.12698 15.2482 8.12698 15.5606 8.4394C15.873 8.75182 15.873 9.25807 15.5606 9.57049L9.90375 15.2273C9.59133 15.5398 9.08507 15.5398 8.77265 15.2273C8.46023 14.9149 8.46023 14.4087 8.77265 14.0963Z" fill="white"/>
<path d="M9.90375 8.4394L15.5606 14.0963C15.873 14.4087 15.873 14.9149 15.5606 15.2273C15.2482 15.5398 14.7419 15.5398 14.4295 15.2273L8.77265 9.57049C8.46023 9.25808 8.46023 8.75182 8.77265 8.4394C9.08507 8.12698 9.59133 8.12698 9.90375 8.4394Z" fill="white"/>
</svg>
