<svg width="24" height="24" viewBox="0 0 24 24" fill="none" xmlns="http://www.w3.org/2000/svg">
<path d="M20 12C20 16.4183 16.4183 20 12 20C7.58172 20 4 16.4183 4 12C4 7.58172 7.58172 4 12 4C16.4183 4 20 7.58172 20 12Z" fill="#6F00FF"/>
<path d="M15.4382 13.754C15.4942 13.796 15.5222 13.866 15.4802 13.922C15.4242 14.02 15.3402 14.146 15.2842 14.202C15.2142 14.3 15.1442 14.398 15.0602 14.482L15.0462 14.496C15.0182 14.524 14.9622 14.58 14.9342 14.622C14.9202 14.622 14.9202 14.636 14.9062 14.636C14.8782 14.678 14.8362 14.706 14.8082 14.734C14.7802 14.762 14.7662 14.776 14.7382 14.79C14.7242 14.804 14.7102 14.818 14.6962 14.832C14.1222 15.308 13.4222 15.63 12.6802 15.728C12.6522 15.728 12.6242 15.742 12.5962 15.742C12.5682 15.742 12.5402 15.742 12.5122 15.756C12.4562 15.756 12.4142 15.756 12.3582 15.756C12.3442 15.756 12.3302 15.77 12.3022 15.77C12.2462 15.77 12.1902 15.77 12.1342 15.77C9.9642 15.77 8.2002 14.02 8.2002 11.878C8.2002 9.736 9.9642 8 12.1342 8C12.1902 8 12.2462 8 12.3022 8C12.3302 8 12.3442 8 12.3582 8C12.4142 8 12.4562 8.014 12.5122 8.014C12.5402 8.014 12.5682 8.028 12.5962 8.028C12.6242 8.028 12.6522 8.028 12.6802 8.028C13.4222 8.14 14.1222 8.448 14.6962 8.938C14.7102 8.952 14.7242 8.952 14.7382 8.966C14.7662 8.994 14.7802 9.008 14.8082 9.022C14.8362 9.064 14.8782 9.092 14.9062 9.134C14.9202 9.134 14.9202 9.148 14.9342 9.148C14.9622 9.19 15.0042 9.218 15.0322 9.26C15.0462 9.274 15.0462 9.274 15.0602 9.274C15.1442 9.372 15.2142 9.456 15.2842 9.554C15.3682 9.652 15.4382 9.764 15.4942 9.862C15.5222 9.904 15.5082 9.96 15.4662 9.988L14.4162 10.604L13.8002 10.954C13.7582 10.982 13.6882 10.968 13.6462 10.912C13.3102 10.394 12.8202 10.1 12.2462 10.1C11.7002 10.1 11.1962 10.352 10.8602 10.744C10.5802 11.038 10.4122 11.444 10.4122 11.878C10.4122 12.326 10.5802 12.718 10.8602 13.026C11.1962 13.418 11.7002 13.67 12.2462 13.67C12.8202 13.67 13.3102 13.376 13.6462 12.844C13.6882 12.802 13.7582 12.788 13.8002 12.816L15.4382 13.754Z" fill="white"/>
</svg>
