<svg width="24" height="24" viewBox="0 0 24 24" fill="none" xmlns="http://www.w3.org/2000/svg">
<path d="M6.14239 4.80005C4.87526 4.80005 4.24176 4.80049 3.75763 5.02739C3.2108 5.28381 2.7804 5.73704 2.55294 6.29653C2.35166 6.79188 2.3847 7.4252 2.45099 8.69067L2.64786 12.4407C2.84659 16.2297 5.97626 19.2 9.77052 19.2C12.1573 19.2 14.2852 18.0224 15.583 16.2H17.6854C20.2261 16.2 22.2861 14.14 22.2861 11.5993C22.2859 8.90809 19.9853 6.7914 17.3033 7.01489L17.2588 7.01841C17.2443 6.73485 17.2026 6.50596 17.1193 6.30005C16.8995 5.75653 16.4876 5.31195 15.9627 5.05083C15.4579 4.79991 14.7857 4.80005 13.442 4.80005H6.14239ZM17.533 9.76528C18.6058 9.67594 19.5261 10.5228 19.5264 11.5993C19.5264 12.6157 18.7018 13.4403 17.6854 13.4403H16.769C16.8215 13.1713 16.861 12.897 16.8826 12.6176L17.1006 9.80044L17.533 9.76528Z" fill="#1B1E22"/>
</svg>
