<svg width="24" height="24" viewBox="0 0 24 24" fill="none" xmlns="http://www.w3.org/2000/svg">
<path d="M19.1999 6C20.3313 6 20.8969 6.00009 21.2483 6.35156C21.5998 6.70303 21.5999 7.26863 21.5999 8.4V9.6C21.5999 10.7314 21.5998 11.297 21.2483 11.6484C20.9201 11.9767 20.405 11.9962 19.4167 11.9977C19.5463 12.2352 19.6365 12.4987 19.6757 12.7805L20.0214 15.2695C20.1979 16.5402 20.2851 17.1755 19.9265 17.5875C19.5677 17.9995 18.9266 18 17.6437 18H17.1562C15.8733 18 15.232 17.9995 14.8733 17.5875C14.5148 17.1755 14.6031 16.5401 14.7796 15.2695L15.1253 12.7805C15.1644 12.4997 15.2531 12.2369 15.3819 12H8.61787C8.74675 12.2369 8.83663 12.4996 8.87568 12.7805L9.22139 15.2695C9.39787 16.5402 9.4851 17.1755 9.12647 17.5875C8.76774 17.9995 8.12663 18 6.84365 18H6.35615C5.07333 18 4.43205 17.9995 4.07334 17.5875C3.71483 17.1755 3.80312 16.5401 3.97959 15.2695L4.32529 12.7805C4.36445 12.499 4.45257 12.235 4.58193 11.9977C3.59436 11.9962 3.0796 11.9766 2.75146 11.6484C2.39999 11.297 2.3999 10.7314 2.3999 9.6V8.4C2.3999 7.26863 2.39999 6.70303 2.75146 6.35156C3.10294 6.00009 3.66853 6 4.7999 6H19.1999Z" fill="#B7C0CD"/>
</svg>
