<svg width="24" height="24" viewBox="0 0 24 24" fill="none" xmlns="http://www.w3.org/2000/svg">
<path d="M5.29314 17.3371L17.314 5.31627C17.7045 4.92575 18.3376 4.92575 18.7282 5.31627C19.1187 5.7068 19.1187 6.33996 18.7282 6.73049L6.70735 18.7513C6.31683 19.1418 5.68366 19.1418 5.29314 18.7513C4.90261 18.3608 4.90261 17.7276 5.29314 17.3371Z" fill="white"/>
<path d="M6.70735 5.29546L18.7282 17.3163C19.1187 17.7068 19.1187 18.34 18.7282 18.7305C18.3376 19.121 17.7045 19.121 17.314 18.7305L5.29314 6.70967C4.90261 6.31915 4.90261 5.68598 5.29314 5.29546C5.68366 4.90493 6.31683 4.90493 6.70735 5.29546Z" fill="white"/>
</svg>
