<svg width="24" height="24" viewBox="0 0 24 24" fill="none" xmlns="http://www.w3.org/2000/svg">
<path d="M10.6872 20.3312C10.6872 22.0364 13.0538 22.6403 13.9471 21.1633C13.9471 21.1633 17.5 15.5 18 15C18.3536 14.6464 20.5 14 20.5 11V7C20.5 5 19 3 17 3H9C6.61791 3 4.78444 4.84837 4.48388 7.21144C4.48388 7.21144 3.8261 10.5418 3.8262 12.3824C3.8263 14.223 5.39077 15.7156 7.32019 15.7156H10.6872V20.3312Z" fill="#D4DAE2"/>
<path d="M17.5 6V12C17.5 12.2761 17.2761 12.5 17 12.5C16.7239 12.5 16.5 12.2761 16.5 12V6C16.5 5.72386 16.7239 5.5 17 5.5C17.2761 5.5 17.5 5.72386 17.5 6Z" fill="white"/>
</svg>
