<svg width="24" height="24" viewBox="0 0 24 24" fill="none" xmlns="http://www.w3.org/2000/svg">
<path d="M6.32807 13.8466C6.08509 12.1597 5.9636 11.3162 6.16726 10.8808C6.46644 10.2411 7.14768 9.87117 7.84712 9.96859C8.32326 10.0349 8.96453 10.5961 10.2471 11.7186C10.5076 11.9466 10.6379 12.0605 10.7826 12.1421C10.994 12.2613 11.2297 12.3311 11.472 12.3463C11.6378 12.3567 11.8091 12.332 12.1518 12.2827C13.8387 12.0397 14.6822 11.9182 15.1177 12.1219C15.7573 12.421 16.1273 13.1023 16.0299 13.8017C15.9635 14.2779 15.4023 14.9191 14.2799 16.2017C14.0519 16.4622 13.9379 16.5924 13.8563 16.7372C13.7371 16.9486 13.6673 17.1843 13.6521 17.4266C13.6417 17.5924 13.6664 17.7637 13.7158 18.1064C13.9588 19.7933 14.0802 20.6368 13.8766 21.0722C13.5774 21.7119 12.8962 22.0819 12.1967 21.9844C11.7206 21.9181 11.0793 21.3569 9.79677 20.2345C9.53625 20.0065 9.40599 19.8925 9.26128 19.8109C9.0498 19.6917 8.8141 19.6219 8.57182 19.6067C8.40604 19.5963 8.2347 19.621 7.89204 19.6704C6.20511 19.9133 5.36165 20.0348 4.92619 19.8312C4.2865 19.532 3.91658 18.8508 4.014 18.1513C4.08031 17.6752 4.64153 17.0339 5.76396 15.7514C5.99196 15.4908 6.10596 15.3606 6.18752 15.2159C6.30671 15.0044 6.37652 14.7687 6.39171 14.5264C6.40211 14.3606 6.37743 14.1893 6.32807 13.8466Z" fill="white"/>
<path d="M18.7069 4.16397C18.8419 3.22639 18.9095 2.7576 18.7963 2.51558C18.63 2.16005 18.2514 1.95445 17.8626 2.00859C17.598 2.04545 17.2416 2.35737 16.5288 2.98121C16.384 3.10793 16.3116 3.17128 16.2311 3.21661C16.1136 3.28286 15.9826 3.32166 15.8479 3.3301C15.7558 3.33588 15.6606 3.32217 15.4701 3.29473C14.5325 3.15968 14.0638 3.09216 13.8217 3.20536C13.4662 3.37164 13.2606 3.75026 13.3147 4.139C13.3516 4.40364 13.6635 4.76005 14.2874 5.47287C14.4141 5.61767 14.4774 5.69006 14.5228 5.77049C14.589 5.88803 14.6278 6.01903 14.6363 6.15369C14.642 6.24583 14.6283 6.34105 14.6009 6.5315C14.4658 7.46908 14.3983 7.93787 14.5115 8.17989C14.6778 8.53542 15.0564 8.74102 15.4452 8.68688C15.7098 8.65002 16.0662 8.3381 16.779 7.71426C16.9238 7.58755 16.9962 7.52419 17.0766 7.47886C17.1942 7.41261 17.3252 7.37381 17.4598 7.36537C17.552 7.35959 17.6472 7.37331 17.8377 7.40074C18.7752 7.53579 19.244 7.60331 19.486 7.49011C19.8416 7.32383 20.0472 6.94521 19.993 6.55647C19.9562 6.29183 19.6443 5.93542 19.0204 5.2226C18.8937 5.0778 18.8303 5.00541 18.785 4.92498C18.7188 4.80744 18.68 4.67644 18.6715 4.54178C18.6657 4.44964 18.6795 4.35442 18.7069 4.16397Z" fill="white"/>
</svg>
