<svg width="24" height="24" viewBox="0 0 24 24" fill="none" xmlns="http://www.w3.org/2000/svg">
<path d="M17.1504 12.75C18.65 12.75 19.4001 12.7499 19.9258 13.1318C20.0955 13.2552 20.2448 13.4045 20.3682 13.5742C20.7501 14.0999 20.75 14.85 20.75 16.3496V17.1504C20.75 18.65 20.7501 19.4001 20.3682 19.9258C20.2448 20.0955 20.0955 20.2448 19.9258 20.3682C19.4001 20.7501 18.65 20.75 17.1504 20.75H6.84961C5.34998 20.75 4.5999 20.7501 4.07422 20.3682C3.90449 20.2448 3.75517 20.0955 3.63184 19.9258C3.2499 19.4001 3.25 18.65 3.25 17.1504V16.3496C3.25 14.85 3.2499 14.0999 3.63184 13.5742C3.75517 13.4045 3.90449 13.2552 4.07422 13.1318C4.5999 12.7499 5.34998 12.75 6.84961 12.75H17.1504ZM17.1504 3.25C18.65 3.25 19.4001 3.2499 19.9258 3.63184C20.0955 3.75517 20.2448 3.90449 20.3682 4.07422C20.7501 4.5999 20.75 5.34998 20.75 6.84961V7.65039C20.75 9.15002 20.7501 9.9001 20.3682 10.4258C20.2448 10.5955 20.0955 10.7448 19.9258 10.8682C19.4001 11.2501 18.65 11.25 17.1504 11.25H6.84961C5.34998 11.25 4.5999 11.2501 4.07422 10.8682C3.90449 10.7448 3.75517 10.5955 3.63184 10.4258C3.2499 9.9001 3.25 9.15002 3.25 7.65039V6.84961C3.25 5.34998 3.2499 4.5999 3.63184 4.07422C3.75517 3.90449 3.90449 3.75517 4.07422 3.63184C4.5999 3.2499 5.34998 3.25 6.84961 3.25H17.1504Z" fill="#48505B"/>
</svg>
