<svg width="24" height="24" viewBox="0 0 24 24" fill="none" xmlns="http://www.w3.org/2000/svg">
<path d="M20.5 9.52051C20.4998 6.78225 18.325 4.5625 15.6426 4.5625C14.1916 4.56261 12.89 5.39204 12 6.42188C11.1655 5.45624 9.96909 4.66702 8.62695 4.57227L8.35742 4.5625C5.675 4.5625 3.50017 6.78225 3.5 9.52051C3.5 14.3242 10.3384 19.1279 11.8691 19.4229L12 19.4375C13.2143 19.4375 20.5 14.4788 20.5 9.52051ZM22.5 9.52051C22.5 12.882 20.1199 15.869 18.0771 17.7939C16.9978 18.811 15.8729 19.6637 14.9131 20.2734C14.4349 20.5772 13.97 20.8382 13.5508 21.0312C13.2317 21.1782 12.631 21.4375 12 21.4375C11.369 21.4375 10.7683 21.1782 10.4492 21.0312C10.03 20.8382 9.56508 20.5772 9.08691 20.2734C8.12707 19.6637 7.00219 18.811 5.92285 17.7939C3.88009 15.869 1.5 12.882 1.5 9.52051C1.50017 5.71675 4.53176 2.5625 8.35742 2.5625C9.75771 2.56257 10.9944 3.05964 12 3.75391C13.0056 3.05964 14.2423 2.56257 15.6426 2.5625C19.4682 2.5625 22.4998 5.71675 22.5 9.52051Z" fill="#8996A9"/>
</svg>
