<svg width="24" height="24" viewBox="0 0 24 24" fill="none" xmlns="http://www.w3.org/2000/svg">
<path d="M21 9.37512C21 6.47563 18.6975 4.12512 15.8571 4.12512C14.3207 4.12512 12.9424 5.00339 12 6.09387C11.0576 5.00339 9.67934 4.12512 8.14286 4.12512C5.30254 4.12512 3 6.47563 3 9.37512C3 14.6251 10.7143 19.8751 12 19.8751C13.2857 19.8751 21 14.6251 21 9.37512Z" fill="black" fill-opacity="0.2"/>
<path d="M21 9.37512C21 6.56633 18.8393 4.27271 16.1221 4.13196L15.8571 4.12512C14.3207 4.12512 12.9424 5.00339 12 6.09387C11.0576 5.00339 9.67934 4.12512 8.14286 4.12512C5.30254 4.12512 3 6.47563 3 9.37512L3.00586 9.62122C3.23238 14.6241 10.2664 19.552 11.8613 19.8595L12 19.8751C13.2656 19.8751 20.7602 14.7879 20.9941 9.62122L21 9.37512ZM22.2998 9.37512C22.2998 12.5737 20.0085 15.5288 17.874 17.5402C16.769 18.5814 15.6185 19.4524 14.6455 20.0704C14.1602 20.3787 13.7012 20.6356 13.2998 20.8204C12.9635 20.9753 12.4722 21.1749 12 21.1749C11.5278 21.1749 11.0365 20.9753 10.7002 20.8204C10.2988 20.6356 9.8398 20.3787 9.35449 20.0704C8.3815 19.4524 7.23096 18.5814 6.12598 17.5402C3.99149 15.5288 1.7002 12.5737 1.7002 9.37512C1.7002 5.78315 4.55928 2.82547 8.14258 2.82532C9.64465 2.82532 10.9685 3.45116 12 4.28918C13.0315 3.45116 14.3553 2.82532 15.8574 2.82532C19.4407 2.82547 22.2998 5.78315 22.2998 9.37512Z" fill="white"/>
</svg>
