<svg width="24" height="24" viewBox="0 0 24 24" fill="none" xmlns="http://www.w3.org/2000/svg">
<path d="M20.5002 9.52368C20.5001 6.78542 18.3252 4.56567 15.6428 4.56567C14.1918 4.56578 12.8902 5.39522 12.0002 6.42505C11.1658 5.45941 9.96933 4.6702 8.6272 4.57544L8.35767 4.56567C5.67525 4.56567 3.50042 6.78542 3.50024 9.52368C3.50024 14.3274 10.3387 19.1311 11.8694 19.426L12.0002 19.4407C13.2145 19.4407 20.5002 14.482 20.5002 9.52368ZM21.9407 9.52368C21.9407 12.6381 19.7169 15.4833 17.6936 17.3899C16.6402 18.3826 15.5427 19.2131 14.6125 19.804C14.1488 20.0985 13.7067 20.346 13.3167 20.5256C12.9986 20.6721 12.497 20.8811 12.0002 20.8811C11.5034 20.8811 11.0019 20.6721 10.6838 20.5256C10.2937 20.346 9.85169 20.0985 9.38794 19.804C8.45774 19.2131 7.36033 18.3826 6.30688 17.3899C4.28361 15.4833 2.05981 12.6381 2.05981 9.52368C2.05999 6.01826 4.85211 3.12524 8.35767 3.12524C9.77128 3.12532 11.0163 3.68915 12.0002 4.45142C12.9841 3.68915 14.2292 3.12532 15.6428 3.12524C19.1484 3.12524 21.9405 6.01826 21.9407 9.52368Z" fill="#8996A9"/>
</svg>
