<svg preserveAspectRatio="none" width="100%" height="100%" overflow="visible" style="display: block;" viewBox="0 0 12 15" fill="none" xmlns="http://www.w3.org/2000/svg">
<g id="vector">
<path id="Vector" d="M2.43401 8.82702C2.27984 7.75672 2.20276 7.22156 2.33198 6.94528C2.5218 6.53942 2.95403 6.30472 3.3978 6.36652C3.69989 6.4086 4.10676 6.76467 4.92049 7.47682C5.08578 7.62148 5.16843 7.69381 5.26024 7.74555C5.39442 7.82118 5.54396 7.86547 5.69768 7.87511C5.80287 7.8817 5.91157 7.86605 6.12898 7.83473C7.19928 7.68056 7.73443 7.60348 8.01072 7.7327C8.41657 7.92252 8.65128 8.35474 8.58947 8.79852C8.5474 9.10061 8.19132 9.50748 7.47917 10.3212C7.33452 10.4865 7.26219 10.5691 7.21044 10.661C7.13482 10.7951 7.09053 10.9447 7.08089 11.0984C7.07429 11.2036 7.08995 11.3123 7.12126 11.5297C7.27543 12.6 7.35251 13.1351 7.22329 13.4114C7.03347 13.8173 6.60125 14.052 6.15748 13.9902C5.85538 13.9481 5.44852 13.592 4.63479 12.8799C4.46949 12.7352 4.38685 12.6629 4.29504 12.6112C4.16086 12.5355 4.01131 12.4912 3.85759 12.4816C3.75241 12.475 3.64371 12.4907 3.4263 12.522C2.356 12.6761 1.82084 12.7532 1.54456 12.624C1.1387 12.4342 0.903995 12.002 0.965804 11.5582C1.00788 11.2561 1.36395 10.8492 2.0761 10.0355C2.22076 9.87021 2.29309 9.78757 2.34483 9.69576C2.42046 9.56158 2.46475 9.41203 2.47439 9.25831C2.48098 9.15313 2.46533 9.04443 2.43401 8.82702Z" fill="var(--fill-0, white)"/>
<path id="Vector_2" d="M9.9019 2.68344C9.98759 2.08858 10.0304 1.79115 9.95861 1.63759C9.85311 1.41202 9.61289 1.28157 9.36624 1.31593C9.19834 1.33931 8.97221 1.53721 8.51995 1.93302C8.42808 2.01342 8.38215 2.05362 8.33112 2.08238C8.25654 2.12441 8.17343 2.14902 8.08799 2.15438C8.02953 2.15805 7.96911 2.14934 7.84828 2.13194C7.25342 2.04626 6.95599 2.00341 6.80243 2.07523C6.57686 2.18073 6.44641 2.42096 6.48076 2.6676C6.50415 2.8355 6.70205 3.06163 7.09786 3.5139C7.17825 3.60577 7.21845 3.6517 7.24721 3.70273C7.28924 3.7773 7.31386 3.86042 7.31922 3.94585C7.32289 4.00431 7.31418 4.06473 7.29678 4.18556C7.2111 4.78043 7.16825 5.07786 7.24007 5.23141C7.34557 5.45699 7.5858 5.58743 7.83244 5.55308C8.00034 5.52969 8.22647 5.33179 8.67874 4.93599C8.7706 4.85559 8.81654 4.81539 8.86757 4.78663C8.94214 4.7446 9.02526 4.71998 9.11069 4.71462C9.16915 4.71096 9.22957 4.71966 9.3504 4.73707C9.94527 4.82275 10.2427 4.86559 10.3963 4.79377C10.6218 4.68827 10.7523 4.44805 10.7179 4.2014C10.6945 4.0335 10.4966 3.80737 10.1008 3.35511C10.0204 3.26324 9.98023 3.21731 9.95147 3.16628C9.90944 3.0917 9.88482 3.00859 9.87946 2.92315C9.8758 2.86469 9.8845 2.80428 9.9019 2.68344Z" fill="var(--fill-0, white)"/>
</g>
</svg>
