<svg width="20" height="20" viewBox="0 0 20 20" fill="none" xmlns="http://www.w3.org/2000/svg">
<path d="M13.8574 2.5C16.4044 2.50016 18.4998 4.64659 18.5 7.33301C18.5 9.78218 16.7076 12.3232 14.6367 14.3057C13.6152 15.2835 12.5551 16.0969 11.6777 16.6631C11.2386 16.9465 10.8518 17.1636 10.5439 17.3076C10.3902 17.3796 10.2624 17.43 10.1621 17.4619C10.1123 17.4777 10.0726 17.4883 10.043 17.4941C10.0123 17.5002 9.99905 17.5 10 17.5C10.001 17.5 9.98769 17.5002 9.95703 17.4941C9.92742 17.4883 9.88769 17.4777 9.83789 17.4619C9.73759 17.43 9.60984 17.3796 9.45605 17.3076C9.14821 17.1636 8.76142 16.9465 8.32227 16.6631C7.44487 16.0969 6.3848 15.2835 5.36328 14.3057C3.29238 12.3232 1.5 9.78218 1.5 7.33301C1.50017 4.64659 3.59561 2.50016 6.14258 2.5C7.48388 2.5 8.735 3.28488 9.61914 4.32422C9.71414 4.43581 9.85344 4.5 10 4.5C10.1466 4.5 10.2859 4.43581 10.3809 4.32422C11.265 3.28488 12.5161 2.5 13.8574 2.5Z" fill="black" fill-opacity="0.2" stroke="white" stroke-linejoin="round"/>
</svg>
