<svg width="14" height="14" viewBox="0 0 14 14" fill="none" xmlns="http://www.w3.org/2000/svg">
<path d="M6.86477 3.1272L5.45095 3.1272C4.40376 3.1272 3.88016 3.1272 3.5131 3.39388C3.39456 3.48001 3.29031 3.58426 3.20418 3.7028C2.9375 4.06985 2.9375 4.59345 2.9375 5.64065V8.46829C2.9375 9.51549 2.9375 10.0391 3.20418 10.4061C3.29031 10.5247 3.39456 10.6289 3.5131 10.7151C3.88016 10.9817 4.40376 10.9817 5.45095 10.9817H8.27859C9.32579 10.9817 9.84939 10.9817 10.2164 10.7151C10.335 10.6289 10.4392 10.5247 10.5254 10.4061C10.792 10.0391 10.792 9.51549 10.792 8.46829V7.05447" stroke="#48505B" stroke-width="0.818182" stroke-linecap="round"/>
<path d="M7.19226 6.72752L11.5728 2.55256M11.5728 2.55256L11.5728 5.32955M11.5728 2.55256L8.79583 2.55256" stroke="#48505B" stroke-width="0.818182" stroke-linecap="round" stroke-linejoin="round"/>
</svg>
