<svg preserveAspectRatio="none" width="100%" height="100%" overflow="visible" style="display: block;" viewBox="0 0 13.0001 12.9776" fill="none" xmlns="http://www.w3.org/2000/svg">
<path id="Vector" d="M12.5001 5.73879C12.3166 4.41896 11.7044 3.19604 10.7575 2.25842C9.81072 1.32079 8.58188 0.720483 7.26031 0.549959C5.93875 0.379434 4.59778 0.648155 3.44396 1.31473C2.29015 1.9813 1.3875 3.00875 0.875061 4.23879M0.500061 1.23879V4.23879H3.50006M0.500061 7.23879C0.683481 8.55863 1.29576 9.78155 2.24258 10.7192C3.1894 11.6568 4.41824 12.2571 5.73981 12.4276C7.06137 12.5982 8.40234 12.3294 9.55616 11.6629C10.71 10.9963 11.6126 9.96884 12.1251 8.73879M12.5001 11.7388V8.73879H9.50006" stroke="var(--stroke-0, #8996A9)" stroke-linecap="round" stroke-linejoin="round"/>
</svg>
