<svg width="20" height="20" viewBox="0 0 20 20" fill="none" xmlns="http://www.w3.org/2000/svg">
<path d="M16 9.25002C15.8166 7.93019 15.2043 6.70727 14.2575 5.76965C13.3107 4.83202 12.0818 4.23171 10.7603 4.06119C9.43869 3.89066 8.09772 4.15939 6.9439 4.82596C5.79009 5.49253 4.88744 6.51998 4.375 7.75002M4 4.75002V7.75002H7M4 10.75C4.18342 12.0699 4.7957 13.2928 5.74252 14.2304C6.68934 15.168 7.91818 15.7683 9.23975 15.9389C10.5613 16.1094 11.9023 15.8407 13.0561 15.1741C14.2099 14.5075 15.1126 13.4801 15.625 12.25M16 15.25V12.25H13" stroke="#8996A9" stroke-linecap="round" stroke-linejoin="round"/>
</svg>
