<svg width="24" height="24" viewBox="0 0 24 24" fill="none" xmlns="http://www.w3.org/2000/svg">
<path d="M13.3128 3.66882C13.3128 1.96363 10.9462 1.35966 10.0529 2.83668C10.0529 2.83668 6.5 8.5 6 9C5.64645 9.35355 3.5 10 3.5 13V17C3.5 19 5 21 7 21H15C17.3821 21 19.2156 19.1516 19.5161 16.7886C19.5161 16.7886 20.1739 13.4582 20.1738 11.6176C20.1737 9.77699 18.6092 8.28435 16.6798 8.28435H13.3128V3.66882Z" fill="#1B1E22"/>
<path d="M6.5 18V12C6.5 11.7239 6.72386 11.5 7 11.5C7.27614 11.5 7.5 11.7239 7.5 12V18C7.5 18.2761 7.27614 18.5 7 18.5C6.72386 18.5 6.5 18.2761 6.5 18Z" fill="white"/>
</svg>
