<svg width="24" height="24" viewBox="0 0 24 24" fill="none" xmlns="http://www.w3.org/2000/svg">
<path d="M4.06836 14.5007V9.7663C4.06836 8.84887 4.06724 8.10287 4.13184 7.50653C4.19789 6.89691 4.33915 6.35866 4.68067 5.88837C4.87863 5.61589 5.11912 5.3754 5.3916 5.17743C5.8619 4.83591 6.40014 4.69465 7.00977 4.6286C7.60611 4.56401 8.3521 4.56513 9.26953 4.56513H10.1289C10.5264 4.56532 10.8486 4.88733 10.8486 5.28485C10.8486 5.68238 10.5264 6.00438 10.1289 6.00458H9.26953C8.32015 6.00458 7.66579 6.00602 7.16504 6.06024C6.67772 6.11304 6.42133 6.20877 6.23731 6.34247C6.08707 6.45162 5.95485 6.58384 5.8457 6.73407C5.712 6.9181 5.61628 7.17449 5.56348 7.66181C5.50925 8.16256 5.50781 8.81691 5.50781 9.7663V14.5007C5.50781 15.4501 5.50922 16.1044 5.56348 16.6052C5.61623 17.0921 5.71216 17.3479 5.8457 17.5319C5.95478 17.6821 6.0872 17.8144 6.23731 17.9235C6.42133 18.0572 6.67772 18.1539 7.16504 18.2067C7.66579 18.2609 8.32017 18.2614 9.26953 18.2614H14.0039C14.9533 18.2614 15.6077 18.261 16.1084 18.2067C16.5956 18.1539 16.8511 18.0572 17.0352 17.9235C17.1854 17.8144 17.3176 17.6822 17.4268 17.5319C17.5604 17.3479 17.6572 17.0924 17.71 16.6052C17.7642 16.1044 17.7646 15.4501 17.7646 14.5007V13.7819C17.7648 13.3844 18.0878 13.0622 18.4854 13.0622C18.8828 13.0624 19.205 13.3845 19.2051 13.7819V14.5007C19.2051 15.4181 19.2062 16.1641 19.1416 16.7604C19.0755 17.3702 18.9335 17.9082 18.5918 18.3786C18.3938 18.6511 18.1543 18.8906 17.8818 19.0886C17.4115 19.4303 16.8735 19.5723 16.2637 19.6384C15.6674 19.703 14.9213 19.7018 14.0039 19.7018H9.26953C8.35212 19.7018 7.6061 19.703 7.00977 19.6384C6.40001 19.5723 5.86197 19.4302 5.3916 19.0886C5.11912 18.8906 4.87864 18.6511 4.68067 18.3786C4.33907 17.9083 4.1979 17.3701 4.13184 16.7604C4.06723 16.1641 4.06836 15.4181 4.06836 14.5007Z" fill="#8996A9"/>
<path d="M19.8463 3.56445C20.244 3.56445 20.5665 3.88704 20.5665 4.28468V9.1267C20.5665 9.52435 20.244 9.84693 19.8463 9.84693C19.4488 9.84678 19.1261 9.52426 19.1261 9.1267V5.96406L12.7048 12.0856C12.417 12.36 11.9606 12.3493 11.6863 12.0615C11.412 11.7736 11.4233 11.3179 11.7111 11.0436L18.0468 5.00353L15.0036 5.00422C14.6063 5.00399 14.2843 4.682 14.2841 4.28468C14.2841 3.88704 14.6066 3.56445 15.0043 3.56445H19.8463Z" fill="#8996A9"/>
</svg>
