<svg width="24" height="24" viewBox="0 0 24 24" fill="none" xmlns="http://www.w3.org/2000/svg">
<path d="M3.98828 14.4998V9.76539C3.98828 8.85413 3.98709 8.09029 4.05371 7.47535C4.12236 6.84177 4.27218 6.24846 4.6543 5.72242C4.86954 5.42617 5.13051 5.1652 5.42676 4.94996C5.95281 4.56783 6.54611 4.41801 7.17969 4.34937C7.79463 4.28275 8.55847 4.28394 9.46973 4.28394H10.3291C10.8812 4.28414 11.3291 4.73178 11.3291 5.28394C11.3291 5.8361 10.8812 6.28374 10.3291 6.28394H9.46973C8.51419 6.28394 7.87767 6.28545 7.39551 6.33765C6.93236 6.38783 6.73089 6.47495 6.60254 6.56812C6.47608 6.66 6.36434 6.77174 6.27246 6.8982C6.1793 7.02655 6.09217 7.22802 6.04199 7.69117C5.9898 8.17333 5.98828 8.80985 5.98828 9.76539V14.4998C5.98828 15.4554 5.98977 16.0918 6.04199 16.574C6.0922 17.0374 6.17924 17.2386 6.27246 17.3669C6.36434 17.4934 6.47609 17.6042 6.60254 17.696C6.73088 17.7893 6.93201 17.8773 7.39551 17.9275C7.87766 17.9797 8.51422 17.9812 9.46973 17.9812H14.2041C15.1597 17.9812 15.7962 17.9797 16.2783 17.9275C16.7418 17.8773 16.943 17.7893 17.0713 17.696C17.1976 17.6043 17.3086 17.4932 17.4004 17.3669C17.4936 17.2386 17.5816 17.0375 17.6318 16.574C17.6841 16.0918 17.6855 15.4554 17.6855 14.4998V13.781C17.6857 13.2288 18.1333 12.781 18.6855 12.781C19.2376 12.7812 19.6854 13.2289 19.6855 13.781V14.4998C19.6855 15.4109 19.6867 16.1749 19.6201 16.7898C19.5515 17.4234 19.4007 18.0167 19.0186 18.5427C18.8034 18.8387 18.5431 19.0991 18.2471 19.3142C17.721 19.6964 17.1277 19.8471 16.4941 19.9158C15.8792 19.9824 15.1153 19.9812 14.2041 19.9812H9.46973C8.55849 19.9812 7.79462 19.9824 7.17969 19.9158C6.54603 19.8471 5.95286 19.6964 5.42676 19.3142C5.13055 19.099 4.86951 18.8389 4.6543 18.5427C4.27212 18.0167 4.12238 17.4234 4.05371 16.7898C3.98709 16.1749 3.98828 15.4109 3.98828 14.4998Z" fill="#8996A9"/>
<path d="M20.0464 3.28162C20.5986 3.28162 21.0462 3.72935 21.0463 4.28151L21.047 9.12422C21.047 9.67637 20.5992 10.1239 20.0471 10.1241C19.4949 10.1241 19.0472 9.67651 19.0472 9.12422L19.0466 6.61551L13.0983 12.2862C12.6985 12.6672 12.0651 12.6514 11.6841 12.2517C11.3032 11.8518 11.3182 11.2191 11.7179 10.8381L17.5488 5.28071L15.2044 5.2814C14.6521 5.2814 14.2045 4.83379 14.2045 4.28151C14.2047 3.72935 14.6522 3.28162 15.2044 3.28162H20.0464Z" fill="#8996A9"/>
</svg>
