<svg width="24" height="24" viewBox="0 0 24 24" fill="none" xmlns="http://www.w3.org/2000/svg">
<path d="M12 3C14.4853 3 16.5 5.01472 16.5 7.5V8.08398C17.0326 8.14486 17.4491 8.24841 17.8164 8.43555C18.5689 8.81902 19.181 9.43109 19.5645 10.1836C20.0004 11.0392 20 12.1602 20 14.4004V14.5996C20 16.8398 20.0004 17.9608 19.5645 18.8164C19.181 19.5689 18.5689 20.181 17.8164 20.5645C16.9608 21.0004 15.8398 21 13.5996 21H10.4004C8.16018 21 7.03924 21.0004 6.18359 20.5645C5.43109 20.181 4.81902 19.5689 4.43555 18.8164C3.99957 17.9608 4 16.8398 4 14.5996V14.4004C4 12.1602 3.99957 11.0392 4.43555 10.1836C4.81902 9.43109 5.43109 8.81902 6.18359 8.43555C6.55088 8.24841 6.96741 8.14486 7.5 8.08398V7.5C7.5 5.01472 9.51472 3 12 3ZM12 11.5C10.8954 11.5 10 12.3954 10 13.5C10 14.3579 10.5411 15.087 11.2998 15.3711V17.0996C11.2998 17.3205 11.4793 17.5 11.7002 17.5H12.2998C12.5207 17.5 12.7002 17.3205 12.7002 17.0996V15.3711C13.4589 15.087 14 14.3579 14 13.5C14 12.3954 13.1046 11.5 12 11.5ZM12 5C10.6193 5 9.5 6.11929 9.5 7.5V8.00391C9.77864 8.00262 10.0779 8 10.4004 8H13.5996C13.9221 8 14.2214 8.00262 14.5 8.00391V7.5C14.5 6.11929 13.3807 5 12 5Z" fill="#1B1E22"/>
</svg>
