<svg width="24" height="24" viewBox="0 0 24 24" fill="none" xmlns="http://www.w3.org/2000/svg">
<path d="M12.118 2.66602C8.97166 2.66602 6.18416 4.80982 5.70788 7.91992C5.58984 8.69081 5.49565 9.4531 5.44876 10.1322C5.31488 12.0718 5.27155 13.1737 5.44876 15.11C5.47762 15.4253 5.52096 15.762 5.57376 16.1087C6.0517 19.2467 8.9439 21.3327 12.118 21.3327C15.2922 21.3327 18.1844 19.2467 18.6623 16.1087C18.7151 15.762 18.7584 15.4253 18.7873 15.11C18.9645 13.1737 18.9212 12.0718 18.7873 10.1322C18.7404 9.4531 18.6462 8.69081 18.5282 7.91992C18.0519 4.80982 15.2644 2.66602 12.118 2.66602Z" fill="#B7C0CD"/>
<path d="M12.7823 6.66549C12.782 6.29754 12.4835 5.99987 12.1155 5.99987C11.7474 5.99987 11.4489 6.29754 11.4487 6.66549L11.4487 9.33268C11.4487 9.70087 11.7473 9.99948 12.1155 9.99948C12.4836 9.99948 12.7823 9.70087 12.7823 9.33268L12.7823 6.66549Z" fill="white"/>
</svg>
