<svg width="24" height="24" viewBox="0 0 24 24" fill="none" xmlns="http://www.w3.org/2000/svg">
<path d="M22 11.985C22 17.5078 17.5228 21.985 12 21.985C6.47715 21.985 2 17.5078 2 11.985C2 6.46214 6.47715 1.98499 12 1.98499C17.5228 1.98499 22 6.46214 22 11.985Z" fill="#D4DAE2"/>
<path d="M11.3668 15.8183V7.81831C11.3668 7.37648 11.7248 7.0185 12.1666 7.0185C12.6085 7.0185 12.9664 7.37648 12.9664 7.81831V15.8183C12.9664 16.2601 12.6085 16.6181 12.1666 16.6181C11.7248 16.6181 11.3668 16.2601 11.3668 15.8183Z" fill="white"/>
<path d="M8.16668 11.0186H16.1667C16.6085 11.0186 16.9665 11.3765 16.9665 11.8184C16.9665 12.2602 16.6085 12.6182 16.1667 12.6182H8.16668C7.72485 12.6182 7.36687 12.2602 7.36687 11.8184C7.36687 11.3765 7.72485 11.0186 8.16668 11.0186Z" fill="white"/>
</svg>
