<svg width="48" height="48" viewBox="0 0 48 48" fill="none" xmlns="http://www.w3.org/2000/svg">
<rect width="48" height="48" rx="24" fill="#F3F4F7"/>
<path d="M13.6795 22.9102C13.8391 22.0756 13.9189 21.6582 14.0796 21.2658C14.2938 20.7425 14.6141 20.2488 15.0192 19.8173C15.323 19.4936 15.6938 19.2162 16.4356 18.6613L23.2877 13.5357C24.268 12.8024 24.7582 12.4357 25.2524 12.2626C25.9112 12.0317 26.5909 12.0292 27.1636 12.2556C27.5931 12.4254 27.9455 12.7889 28.6504 13.5161L33.8965 18.9278C34.4412 19.4896 34.7135 19.7706 34.8975 20.0997C35.1429 20.5386 35.2754 21.0423 35.2859 21.5763C35.2937 21.9768 35.2074 22.4029 35.0347 23.2552L33.6492 30.0924C33.4366 31.1411 33.3304 31.6655 33.0728 32.0789C32.7293 32.63 32.1959 33.0669 31.5884 33.2945C31.1329 33.4652 30.5989 33.4652 29.5309 33.4652H15.7046C14.4486 33.4652 13.8206 33.4652 13.3637 33.2638C12.7546 32.9952 12.3285 32.4801 12.179 31.8315C12.0669 31.3451 12.1848 30.7284 12.4206 29.495L13.6795 22.9102Z" fill="#D4DAE2"/>
<path d="M24.4113 24.5887C24.2373 23.3811 24.1504 22.7772 24.2962 22.4655C24.5104 22.0075 24.9981 21.7427 25.4988 21.8125C25.8396 21.8599 26.2987 22.2617 27.2169 23.0653C27.4034 23.2285 27.4967 23.3101 27.6003 23.3685C27.7517 23.4538 27.9204 23.5038 28.0938 23.5147C28.2125 23.5221 28.3352 23.5044 28.5805 23.4691C29.7882 23.2951 30.392 23.2082 30.7037 23.354C31.1617 23.5682 31.4265 24.0559 31.3568 24.5566C31.3093 24.8975 30.9075 25.3565 30.104 26.2747C29.9408 26.4612 29.8591 26.5545 29.8008 26.6581C29.7154 26.8095 29.6655 26.9782 29.6546 27.1516C29.6471 27.2703 29.6648 27.393 29.7001 27.6383C29.8741 28.846 29.9611 29.4498 29.8153 29.7616C29.6011 30.2195 29.1134 30.4843 28.6127 30.4146C28.2718 30.3671 27.8127 29.9653 26.8945 29.1618C26.708 28.9986 26.6148 28.917 26.5112 28.8586C26.3598 28.7732 26.191 28.7233 26.0176 28.7124C25.8989 28.7049 25.7762 28.7226 25.5309 28.7579C24.3233 28.9319 23.7194 29.0189 23.4077 28.8731C22.9497 28.6589 22.6849 28.1712 22.7547 27.6705C22.8021 27.3296 23.2039 26.8705 24.0075 25.9523C24.1707 25.7658 24.2523 25.6726 24.3107 25.569C24.396 25.4176 24.446 25.2488 24.4569 25.0754C24.4643 24.9567 24.4466 24.8341 24.4113 24.5887Z" fill="white"/>
</svg>
