<svg width="24" height="24" viewBox="0 0 24 24" fill="none" xmlns="http://www.w3.org/2000/svg">
<path d="M22 12C22 17.5228 17.5228 22 12 22C6.47715 22 2 17.5228 2 12C2 6.47715 6.47715 2 12 2C17.5228 2 22 6.47715 22 12Z" fill="#F3F4F7"/>
<path fill-rule="evenodd" clip-rule="evenodd" d="M15.0169 10.0044C15.3322 9.98745 15.6249 10.0202 15.895 10.1026C16.1648 10.1808 16.3989 10.3032 16.5976 10.4695C16.7963 10.6359 16.9553 10.8446 17.0742 11.0954C17.1973 11.3459 17.2676 11.6331 17.285 11.9567L14.3318 12.7864C14.5339 13.0158 14.8159 13.1209 15.1774 13.1014C15.4297 13.0878 15.6442 13.0381 15.8209 12.9527C15.9973 12.863 16.1607 12.7277 16.3111 12.5467L17.2552 12.8104C17.0593 13.3001 16.6358 13.6554 16.3737 13.8226C16.0752 13.9947 15.7495 14.0951 15.3333 14.1175C14.9927 14.1358 14.679 14.1042 14.3921 14.0227C14.1054 13.9454 13.8544 13.8239 13.6389 13.6584C13.4234 13.4929 13.2519 13.2873 13.1248 13.0412C12.9975 12.7908 12.9252 12.5059 12.908 12.1864C12.8912 11.8753 12.933 11.5905 13.0329 11.3321C13.1368 11.0694 13.2848 10.8442 13.4771 10.6568C13.6691 10.4651 13.8972 10.3136 14.1611 10.2024C14.4247 10.087 14.71 10.021 15.0169 10.0044ZM15.1154 11.0111C14.8295 11.0265 14.5971 11.0968 14.4196 11.2455C14.2421 11.3942 14.0722 11.6057 14.0351 11.8564L15.9178 11.3473C15.8278 11.2426 15.7157 11.158 15.5815 11.0936C15.4474 11.0291 15.2919 11.0016 15.1154 11.0111Z" fill="#8996A9"/>
<path d="M11.2433 10.1092C11.4128 10.1133 11.5763 10.1526 11.7335 10.227C11.8948 10.2973 12.0373 10.4009 12.1614 10.5373C12.2855 10.6697 12.3847 10.8311 12.4592 11.0213C12.5336 11.2115 12.571 11.4246 12.571 11.6603V13.9122H11.2804V11.6849C11.2804 11.5402 11.2433 11.4202 11.1689 11.3251C11.0986 11.23 10.9952 11.1824 10.8588 11.1824C10.7307 11.1824 10.6314 11.2238 10.5611 11.3065C10.4949 11.3892 10.4513 11.4947 10.4306 11.6228V13.9122H9.14037V11.6849C9.14036 11.5402 9.10298 11.4202 9.02855 11.3251C8.95825 11.23 8.8549 11.1824 8.71848 11.1824C8.65235 11.1824 8.59447 11.1991 8.54486 11.2321C8.49524 11.2611 8.45381 11.3003 8.42073 11.35C8.38764 11.3954 8.3586 11.4492 8.33379 11.5113C8.31312 11.5691 8.29859 11.627 8.29031 11.6849V13.9122H7.00004V10.2333H7.96192L8.20363 10.4939C8.32768 10.3574 8.4703 10.2603 8.63154 10.2024C8.79281 10.1445 8.95207 10.1133 9.10921 10.1092C9.2953 10.105 9.47525 10.1465 9.64894 10.2333C9.82676 10.3202 9.97981 10.4463 10.108 10.6117C10.261 10.4215 10.4389 10.2892 10.6415 10.2147C10.8482 10.1403 11.0489 10.1051 11.2433 10.1092Z" fill="#8996A9"/>
</svg>
