<svg width="335" height="74" viewBox="0 0 335 74" fill="none" xmlns="http://www.w3.org/2000/svg">
<g clip-path="url(#clip0_26933_36377)">
<path d="M0 16C0 7.16344 7.16344 0 16 0H319C327.837 0 335 7.16344 335 16V58C335 66.8366 327.837 74 319 74H16C7.16345 74 0 66.8366 0 58V16Z" fill="url(#paint0_linear_26933_36377)"/>
<path opacity="0.2" d="M290.497 -3.07668C296.784 -12.3016 299.928 -16.9141 302.688 -18.3819C308.41 -21.4246 315.506 -19.6592 319.135 -14.29C320.886 -11.6998 321.502 -6.15187 322.733 4.94394C322.984 7.20077 323.109 8.32919 323.412 9.37489C324.026 11.4928 325.181 13.4139 326.765 14.9484C327.547 15.706 328.485 16.3455 330.361 17.6243C339.586 23.912 344.199 27.0558 345.666 29.8161C348.709 35.5381 346.944 42.6337 341.574 46.2628C338.984 48.0135 333.436 48.6294 322.341 49.8611C320.084 50.1116 318.955 50.2369 317.91 50.5398C315.792 51.1534 313.871 52.309 312.336 53.8925C311.578 54.6743 310.939 55.6125 309.66 57.4888C303.373 66.7138 300.229 71.3262 297.468 72.7941C291.746 75.8367 284.651 74.0713 281.022 68.7021C279.271 66.1119 278.655 60.564 277.423 49.4682C277.173 47.2113 277.048 46.0829 276.745 45.0372C276.131 42.9193 274.975 40.9982 273.392 39.4637C272.61 38.7061 271.672 38.0666 269.796 36.7878C260.571 30.5002 255.958 27.3563 254.49 24.596C251.448 18.874 253.213 11.7784 258.582 8.14933C261.173 6.39862 266.721 5.78275 277.816 4.55101C280.073 4.30048 281.202 4.17521 282.247 3.87227C284.365 3.25872 286.286 2.10309 287.821 0.519623C288.578 -0.262206 289.218 -1.20036 290.497 -3.07668Z" fill="url(#paint1_linear_26933_36377)"/>
<path opacity="0.3" d="M213.111 42.2984C214.229 34.9402 214.788 31.2612 216.024 29.5827C218.585 26.1035 223.359 25.1178 227.089 27.2981C228.889 28.3499 230.859 31.5067 234.8 37.8204C235.602 39.1045 236.002 39.7466 236.486 40.2877C237.466 41.3837 238.714 42.205 240.109 42.6705C240.797 42.9004 241.546 43.0141 243.042 43.2415C250.4 44.3596 254.079 44.9187 255.758 46.1543C259.237 48.7158 260.223 53.4897 258.043 57.2197C256.991 59.019 253.834 60.9895 247.52 64.9304C246.236 65.732 245.594 66.1327 245.053 66.6165C243.957 67.5961 243.136 68.8449 242.67 70.2392C242.44 70.9276 242.327 71.6759 242.099 73.1726C240.981 80.5307 240.422 84.2098 239.186 85.8883C236.625 89.3675 231.851 90.3532 228.121 88.1729C226.322 87.1211 224.351 83.9643 220.41 77.6506C219.609 76.3665 219.208 75.7244 218.724 75.1833C217.744 74.0873 216.496 73.266 215.101 72.8005C214.413 72.5706 213.665 72.4569 212.168 72.2295C204.81 71.1114 201.131 70.5523 199.452 69.3166C195.973 66.7552 194.987 61.9813 197.168 58.2513C198.22 56.4519 201.376 54.4815 207.69 50.5406C208.974 49.739 209.616 49.3382 210.157 48.8545C211.253 47.8748 212.075 46.6261 212.54 45.2318C212.77 44.5433 212.884 43.795 213.111 42.2984Z" fill="url(#paint2_linear_26933_36377)"/>
<path opacity="0.2" d="M181.69 20.9538C182.218 24.6375 182.482 26.4793 182.133 27.4612C181.41 29.4968 179.267 30.6586 177.167 30.1541C176.154 29.9107 174.754 28.6845 171.955 26.232C171.386 25.7332 171.101 25.4838 170.792 25.2947C170.164 24.9117 169.448 24.699 168.713 24.6777C168.35 24.6672 167.976 24.7209 167.227 24.8284C163.543 25.3567 161.701 25.6208 160.719 25.272C158.684 24.5488 157.522 22.4062 158.026 20.3057C158.27 19.2924 159.496 17.893 161.948 15.0941C162.447 14.5248 162.697 14.2402 162.886 13.9305C163.269 13.3031 163.481 12.5867 163.503 11.852C163.513 11.4893 163.459 11.1147 163.352 10.3654C162.824 6.6818 162.56 4.83999 162.908 3.85801C163.632 1.82244 165.774 0.660657 167.875 1.16517C168.888 1.40854 170.287 2.63478 173.086 5.08726C173.656 5.58608 173.94 5.83549 174.25 6.02459C174.877 6.40757 175.594 6.62022 176.328 6.64152C176.691 6.65204 177.066 6.59831 177.815 6.49085C181.499 5.96256 183.34 5.69841 184.322 6.04728C186.358 6.77047 187.52 8.91308 187.015 11.0136C186.772 12.0269 185.546 13.4263 183.093 16.2251C182.594 16.7944 182.345 17.0791 182.156 17.3888C181.773 18.0161 181.56 18.7325 181.539 19.4672C181.528 19.83 181.582 20.2046 181.69 20.9538Z" fill="url(#paint3_linear_26933_36377)"/>
<path d="M24.5664 23.2207C24.5664 25.3672 25.9883 27.5684 27.7109 28.416L27.0547 29.2773C25.7148 28.5732 24.5938 27.1377 24.0605 25.4492C23.5137 27.2471 22.3652 28.7783 20.998 29.5098L20.3145 28.6484C22.0918 27.7734 23.5 25.4355 23.5137 23.2207V21.0059H24.5664V23.2207ZM29.8984 19.9531V24.8887H31.9355V25.8184H29.8984V32.1074H28.832V19.9531H29.8984ZM42.0598 21.1836V22.4004C42.0462 23.8906 42.0462 25.5586 41.6087 28.0059L40.5149 27.8828C40.9798 25.5586 40.9798 23.8496 40.9798 22.4004V22.0723H33.4876V21.1836H42.0598ZM43.386 29.4961V30.3848H32.3118V29.4961H36.6595V25.1484H37.7122V29.4961H43.386ZM57.4002 19.9668V26.7207H56.3338V19.9668H57.4002ZM51.6717 21.6074C51.658 23.2891 52.9705 24.8066 54.7752 25.3945L54.2557 26.2422C52.8202 25.7568 51.6854 24.7451 51.1385 23.4258C50.5916 24.8408 49.4432 25.9482 47.994 26.4609L47.4471 25.6133C49.2791 24.9707 50.578 23.3711 50.578 21.6074V20.418H51.6717V21.6074ZM57.4823 27.4453V28.3203H55.8006V31.0684H57.6053V31.9434H49.1971V31.0684H51.0155V28.3203H49.3065V27.4453H57.4823ZM52.0682 31.0684H54.7342V28.3203H52.0682V31.0684ZM70.2589 26.3652V27.2402H59.1847V26.3652H70.2589ZM69.0284 30.9453V31.8477H60.6202V28.3066H61.7003V30.9453H69.0284ZM64.7218 20.3906C67.3331 20.377 69.0148 21.2793 69.0148 22.7969C69.0148 24.3145 67.3331 25.2168 64.7218 25.2168C62.0831 25.2168 60.4152 24.3145 60.4152 22.7969C60.4152 21.2793 62.0831 20.377 64.7218 20.3906ZM64.7218 21.252C62.7667 21.252 61.5089 21.8398 61.5226 22.7969C61.5089 23.7539 62.7667 24.3418 64.7218 24.3418C66.6632 24.3418 67.921 23.7539 67.921 22.7969C67.921 21.8398 66.6632 21.252 64.7218 21.252ZM78.2985 21.9219C78.2985 23.5762 79.5563 25.0938 81.32 25.6953L80.7321 26.543C79.3854 26.0508 78.3259 25.0459 77.7927 23.7812C77.2731 25.21 76.193 26.3379 74.7712 26.8848L74.197 26.0234C76.0153 25.3398 77.2321 23.7129 77.2458 21.8398V20.582H78.2985V21.9219ZM83.7399 19.9531V23.125H85.572V24.0273H83.7399V27.3496H82.6735V19.9531H83.7399ZM79.8434 27.6641C82.3454 27.6641 83.8493 28.4707 83.8493 29.8652C83.8493 31.2871 82.3454 32.0801 79.8434 32.0801C77.3415 32.0801 75.8102 31.2871 75.8102 29.8652C75.8102 28.4707 77.3415 27.6641 79.8434 27.6641ZM79.8434 28.5254C78.0114 28.5254 76.8766 29.0312 76.8903 29.8652C76.8766 30.7266 78.0114 31.2188 79.8434 31.2324C81.6891 31.2188 82.8102 30.7266 82.8102 29.8652C82.8102 29.0312 81.6891 28.5254 79.8434 28.5254ZM97.1318 25.832V26.7207H92.1142V28.1562H95.7783V31.9434H87.4111V28.1562H91.0615V26.7207H86.0576V25.832H97.1318ZM96.0791 20.3496V21.2383H94.206V23.7949H96.038V24.6836H87.1377V23.7949H88.9697V21.2383H87.0966V20.3496H96.0791ZM88.4775 29.0039V31.0684H94.7255V29.0039H88.4775ZM90.0361 23.7949H93.1396V21.2383H90.0361V23.7949ZM107.899 19.9531V32.1348H106.819V19.9531H107.899ZM101.432 20.8965C103.237 20.9102 104.535 22.5508 104.535 25.1348C104.535 27.7188 103.237 29.3594 101.432 29.3594C99.6135 29.3594 98.3284 27.7188 98.3284 25.1348C98.3284 22.5508 99.6135 20.9102 101.432 20.8965ZM101.432 21.8535C100.215 21.8672 99.3674 23.1523 99.3674 25.1348C99.3674 27.1172 100.215 28.4023 101.432 28.4023C102.649 28.4023 103.496 27.1172 103.496 25.1348C103.496 23.1523 102.649 21.8672 101.432 21.8535ZM117.046 28.1152C117.046 29.1885 117.62 30.3301 118.782 30.9863C119.93 30.2686 120.546 29.0586 120.546 28.1152V27.4453H121.598V28.1152C121.598 29.3594 122.514 30.6172 124.073 31.1504L123.54 31.9434C122.323 31.5127 121.469 30.665 121.052 29.6465C120.676 30.6309 119.93 31.5605 118.809 32.0391C117.627 31.5879 116.875 30.6924 116.512 29.6738C116.082 30.6582 115.241 31.5059 114.079 31.9434L113.532 31.1504C115.063 30.5762 115.993 29.2773 116.007 28.1152V27.4453H117.046V28.1152ZM122.966 19.9668V26.9121H121.899V19.9668H122.966ZM116.403 20.6777C118.249 20.6777 119.589 21.8262 119.589 23.5215C119.589 25.1895 118.249 26.3379 116.403 26.3379C114.557 26.3379 113.218 25.1895 113.218 23.5215C113.218 21.8262 114.557 20.6777 116.403 20.6777ZM116.403 21.5938C115.159 21.5801 114.257 22.3867 114.27 23.5215C114.257 24.6426 115.159 25.4355 116.403 25.4492C117.634 25.4355 118.536 24.6426 118.536 23.5215C118.536 22.3867 117.634 21.5801 116.403 21.5938ZM134.156 19.9531V24.7656H136.193V25.668H134.156V32.1348H133.09V19.9531H134.156ZM130.957 21.1426V22.0312H126.35V28.1836C128.551 28.1836 130.109 28.0811 131.914 27.7461L132.051 28.6758C130.15 29.0176 128.551 29.0859 126.24 29.0859H125.283V21.1426H130.957ZM142.722 21.0195V22.0996H145.566V19.9668H146.646V28.8398H145.566V25.5996H142.722V26.6934H137.144V21.0195H142.722ZM138.21 21.9082V25.832H141.669V21.9082H138.21ZM146.919 30.9453V31.8477H138.785V28.0469H139.865V30.9453H146.919ZM142.722 24.7109H145.566V23.002H142.722V24.7109ZM150.385 30.084L149.319 33.8027H148.307L149.059 30.084H150.385Z" fill="#48505B"/>
<path d="M25.0723 44.3711C25.0723 46.3945 26.2617 48.5273 28.2578 49.3613L27.4238 50.5645C25.9609 49.9355 24.8945 48.6367 24.334 47.0645C23.7598 48.7598 22.6797 50.1816 21.2305 50.8652L20.3555 49.6758C22.3105 48.7734 23.5273 46.4766 23.5273 44.3711V43.332H20.8066V42.0742H27.7793V43.332H25.0723V44.3711ZM30.6914 40.8574V53.2168H29.1602V40.8574H30.6914ZM42.1419 41.459V42.416C42.1419 43.373 42.1419 44.4668 41.8411 45.9297H43.5227V47.1602H32.2298V45.9297H40.3098C40.597 44.5967 40.6243 43.5781 40.6243 42.6758H33.6243V41.459H42.1419ZM42.1282 48.5957V53.0664H33.5833V48.5957H42.1282ZM35.0735 49.7852V51.8359H40.6243V49.7852H35.0735ZM56.7713 40.8574V45.5605H58.6717V46.8457H56.7713V53.2168H55.2537V40.8574H56.7713ZM49.033 41.8691V44.959H51.9452V41.8691H53.4627V50.3184H47.5291V41.8691H49.033ZM49.033 49.0742H51.9452V46.1484H49.033V49.0742ZM70.2042 50.5234V51.7812H58.9113V50.5234H63.7784V48.5137H60.2511V44.4668H67.3605V42.9355H60.2238V41.7051H68.8644V45.6699H61.7687V47.2695H69.1515V48.5137H65.2823V50.5234H70.2042ZM85.0524 47.8164V49.0742H80.1305V53.2168H78.6266V49.0742H73.7595V47.8164H85.0524ZM79.3786 41.2949C82.0036 41.3086 83.8356 42.375 83.8356 44.0703C83.8356 45.752 82.0036 46.8047 79.3786 46.8047C76.7399 46.8047 74.9352 45.752 74.9489 44.0703C74.9352 42.375 76.7399 41.3086 79.3786 41.2949ZM79.3786 42.5254C77.6286 42.5254 76.4938 43.0996 76.5075 44.0703C76.4938 45.0273 77.6286 45.6016 79.3786 45.6016C81.1286 45.6016 82.2634 45.0273 82.2634 44.0703C82.2634 43.0996 81.1286 42.5254 79.3786 42.5254ZM95.8877 40.8574V53.2305H94.3838V40.8574H95.8877ZM92.0869 41.9375V46.5723H87.8349V49.0605C89.7832 49.0469 91.4648 48.9512 93.3857 48.623L93.5224 49.8672C91.417 50.2363 89.5713 50.3047 87.3564 50.3047H86.2763V45.3691H90.542V43.168H86.2627V41.9375H92.0869ZM107.742 41.5957V42.8125H105.144C105.165 44.2617 106.231 45.6494 108.179 46.2031L107.414 47.3926C105.985 46.9688 104.953 46.0732 104.392 44.9316C103.838 46.1621 102.779 47.1328 101.302 47.5977L100.537 46.4082C102.512 45.8271 103.579 44.3438 103.613 42.8125H100.947V41.5957H107.742ZM110.75 40.8574V47.5566H109.218V40.8574H110.75ZM104.078 48.1035V49.375H109.232V48.1035H110.75V53.0664H102.574V48.1035H104.078ZM104.078 51.8359H109.232V50.5508H104.078V51.8359ZM122.938 40.8574V53.2168H121.475V40.8574H122.938ZM120.395 41.0762V52.6152H118.946V46.7363H117.77C117.627 49.1426 116.595 50.6328 115.063 50.6191C113.45 50.6328 112.397 48.9238 112.397 46.2031C112.397 43.4824 113.45 41.8008 115.063 41.8008C116.56 41.8008 117.579 43.1953 117.757 45.5059H118.946V41.0762H120.395ZM115.063 43.2363C114.284 43.2227 113.792 44.2754 113.805 46.2031C113.792 48.1309 114.284 49.1836 115.063 49.1699C115.884 49.1836 116.376 48.1309 116.376 46.2031C116.376 44.2754 115.884 43.2227 115.063 43.2363ZM137.349 48.2539V49.4023H128.161V48.2539H131.99V47.2969H133.521V48.2539H137.349ZM137.171 43.4688V44.6582H133.576V45.6836H138.415V46.8867H127.122V45.6836H132.058V44.6582H128.613V41.0488H130.13V43.4688H137.171ZM132.742 49.8262C135.134 49.8262 136.529 50.4277 136.529 51.5078C136.529 52.6152 135.134 53.2031 132.742 53.2031C130.349 53.2031 128.982 52.6152 128.982 51.5078C128.982 50.4277 130.349 49.8262 132.742 49.8262ZM132.742 50.8789C131.333 50.8789 130.581 51.0566 130.581 51.5078C130.581 51.959 131.333 52.1504 132.742 52.1504C134.15 52.1504 134.929 51.959 134.929 51.5078C134.929 51.0566 134.15 50.8789 132.742 50.8789ZM142.278 41.7598C144.137 41.7598 145.477 43.4551 145.491 46.1211C145.477 48.8145 144.137 50.4961 142.278 50.4961C140.405 50.4961 139.051 48.8145 139.065 46.1211C139.051 43.4551 140.405 41.7598 142.278 41.7598ZM142.278 43.127C141.239 43.127 140.528 44.2344 140.528 46.1211C140.528 48.0215 141.239 49.1289 142.278 49.1289C143.331 49.1289 144.028 48.0215 144.028 46.1211C144.028 44.2344 143.331 43.127 142.278 43.127ZM148.635 40.8574V45.6016H150.536V46.8867H148.635V53.2168H147.118V40.8574H148.635ZM162.068 50.4824V51.7266H150.775V50.4824H155.643V48.0762H152.019V41.6777H153.537V43.7012H159.266V41.6777H160.783V48.0762H157.146V50.4824H162.068ZM153.537 46.8457H159.266V44.918H153.537V46.8457ZM172.917 40.8574V53.2168H171.386V40.8574H172.917ZM169.226 42.1699C169.226 45.8477 167.804 48.9785 163.47 51.0293L162.677 49.8125C165.91 48.2744 167.414 46.1826 167.681 43.373H163.306V42.1699H169.226Z" fill="#1B1E22"/>
<g filter="url(#filter0_d_26933_36377)">
<path d="M317 37C317 42.5228 312.523 47 307 47C301.477 47 297 42.5228 297 37C297 31.4772 301.477 27 307 27C312.523 27 317 31.4772 317 37Z" fill="white"/>
<path d="M306.565 32.4346C306.253 32.1222 305.747 32.1222 305.435 32.4346C305.122 32.747 305.122 33.253 305.435 33.5654L308.869 37L305.435 40.4346C305.122 40.747 305.122 41.253 305.435 41.5654C305.747 41.8778 306.253 41.8778 306.565 41.5654L310.565 37.5654C310.878 37.253 310.878 36.747 310.565 36.4346L306.565 32.4346Z" fill="#BEA1F6"/>
</g>
</g>
<defs>
<filter id="filter0_d_26933_36377" x="255" y="-15" width="104" height="104" filterUnits="userSpaceOnUse" color-interpolation-filters="sRGB">
<feFlood flood-opacity="0" result="BackgroundImageFix"/>
<feColorMatrix in="SourceAlpha" type="matrix" values="0 0 0 0 0 0 0 0 0 0 0 0 0 0 0 0 0 0 127 0" result="hardAlpha"/>
<feOffset/>
<feGaussianBlur stdDeviation="20"/>
<feComposite in2="hardAlpha" operator="out"/>
<feColorMatrix type="matrix" values="0 0 0 0 0 0 0 0 0 0 0 0 0 0 0 0 0 0 0.15 0"/>
<feBlend mode="multiply" in2="BackgroundImageFix" result="effect1_dropShadow_26933_36377"/>
<feBlend mode="normal" in="SourceGraphic" in2="effect1_dropShadow_26933_36377" result="shape"/>
</filter>
<linearGradient id="paint0_linear_26933_36377" x1="302" y1="93.425" x2="19.7037" y2="-7.59447" gradientUnits="userSpaceOnUse">
<stop stop-color="#DED7FE"/>
<stop offset="1" stop-color="#F8F7FF"/>
</linearGradient>
<linearGradient id="paint1_linear_26933_36377" x1="317.453" y1="-42.6256" x2="282.969" y2="97.1032" gradientUnits="userSpaceOnUse">
<stop stop-color="#A793F8"/>
<stop offset="1" stop-color="#E8E3FC"/>
</linearGradient>
<linearGradient id="paint2_linear_26933_36377" x1="217.905" y1="10.7527" x2="237.484" y2="104.681" gradientUnits="userSpaceOnUse">
<stop stop-color="#A793F8"/>
<stop offset="1" stop-color="#E8E3FC"/>
</linearGradient>
<linearGradient id="paint3_linear_26933_36377" x1="183.954" y1="36.7462" x2="161.007" y2="-5.38336" gradientUnits="userSpaceOnUse">
<stop stop-color="#A793F8"/>
<stop offset="1" stop-color="#E8E3FC"/>
</linearGradient>
<clipPath id="clip0_26933_36377">
<path d="M0 16C0 7.16344 7.16344 0 16 0H319C327.837 0 335 7.16344 335 16V58C335 66.8366 327.837 74 319 74H16C7.16345 74 0 66.8366 0 58V16Z" fill="white"/>
</clipPath>
</defs>
</svg>
