<svg width="24" height="24" viewBox="0 0 24 24" fill="none" xmlns="http://www.w3.org/2000/svg">
<path d="M19.0499 19.0006V17.5875C18.3582 18.4399 17.5129 19.165 16.5499 19.7213C14.8312 20.7142 12.8339 21.1148 10.8654 20.8609C8.89674 20.6069 7.06585 19.7126 5.65539 18.316C4.24497 16.9193 3.33201 15.0975 3.05871 13.1314C2.98649 12.6118 3.34962 12.1314 3.86926 12.0592C4.38893 11.987 4.8693 12.35 4.94152 12.8697C5.15744 14.423 5.878 15.862 6.9923 16.9654C8.10655 18.0688 9.55232 18.7754 11.1075 18.9762C12.6629 19.1769 14.2418 18.8612 15.5997 18.0768C16.5214 17.5443 17.3062 16.8154 17.9044 15.9498H16.0001C15.4755 15.9498 15.0501 15.5251 15.0499 15.0006C15.0499 14.4759 15.4754 14.0504 16.0001 14.0504H20.0001C20.5248 14.0504 20.9503 14.4759 20.9503 15.0006V19.0006C20.9502 19.5251 20.5247 19.9498 20.0001 19.9498C19.4755 19.9498 19.0501 19.5251 19.0499 19.0006ZM7.45031 4.27891C9.16897 3.28607 11.1664 2.88537 13.1349 3.13926C15.1036 3.39329 16.9344 4.28837 18.3448 5.68516C19.7553 7.08194 20.6683 8.90355 20.9415 10.8697C21.0136 11.3893 20.6505 11.8687 20.131 11.941C19.6114 12.0132 19.1311 11.651 19.0587 11.1314C18.8428 9.57806 18.1223 8.13831 17.0079 7.03477C15.8937 5.93145 14.4478 5.22479 12.8927 5.02402C11.3373 4.82332 9.7585 5.13989 8.40051 5.92441C7.47896 6.45683 6.69394 7.18499 6.09582 8.05039H8.00012C8.52479 8.05039 8.95031 8.47592 8.95031 9.00059C8.95015 9.52512 8.52469 9.9498 8.00012 9.9498H4.52355C4.50958 9.95016 4.49559 9.95007 4.48156 9.9498H4.00012C3.47554 9.9498 3.05008 9.52512 3.04992 9.00059V5.00059C3.04992 4.47591 3.47545 4.05039 4.00012 4.05039C4.52479 4.05039 4.95031 4.47591 4.95031 5.00059V6.41269C5.64196 5.56043 6.4874 4.83519 7.45031 4.27891Z" fill="white"/>
</svg>
