<svg width="24" height="24" viewBox="0 0 24 24" fill="none" xmlns="http://www.w3.org/2000/svg">
<path d="M19.0497 19.0006V17.5875C18.358 18.4399 17.5127 19.165 16.5497 19.7213C14.831 20.7142 12.8337 21.1148 10.8651 20.8609C8.89649 20.6069 7.0656 19.7126 5.65515 18.316C4.24473 16.9193 3.33176 15.0975 3.05847 13.1314C2.98625 12.6118 3.34938 12.1314 3.86901 12.0592C4.38869 11.987 4.86906 12.35 4.94128 12.8697C5.1572 14.423 5.87776 15.862 6.99206 16.9654C8.1063 18.0688 9.55208 18.7754 11.1073 18.9762C12.6627 19.1769 14.2415 18.8612 15.5995 18.0768C16.5212 17.5443 17.306 16.8154 17.9042 15.9498H15.9999C15.4753 15.9498 15.0498 15.5251 15.0497 15.0006C15.0497 14.4759 15.4752 14.0504 15.9999 14.0504H19.9999C20.5245 14.0504 20.9501 14.4759 20.9501 15.0006V19.0006C20.9499 19.5251 20.5244 19.9498 19.9999 19.9498C19.4753 19.9498 19.0498 19.5251 19.0497 19.0006ZM7.45007 4.27891C9.16873 3.28607 11.1661 2.88537 13.1346 3.13926C15.1034 3.39329 16.9341 4.28837 18.3446 5.68516C19.7551 7.08194 20.668 8.90355 20.9413 10.8697C21.0133 11.3893 20.6503 11.8687 20.1307 11.941C19.6112 12.0132 19.1308 11.651 19.0585 11.1314C18.8426 9.57806 18.1221 8.13831 17.0077 7.03477C15.8935 5.93145 14.4476 5.22479 12.8925 5.02402C11.337 4.82332 9.75825 5.13989 8.40026 5.92441C7.47872 6.45683 6.6937 7.18499 6.09558 8.05039H7.99987C8.52454 8.05039 8.95007 8.47592 8.95007 9.00059C8.94991 9.52512 8.52445 9.9498 7.99987 9.9498H4.52331C4.50934 9.95016 4.49535 9.95007 4.48132 9.9498H3.99987C3.4753 9.9498 3.04984 9.52512 3.04968 9.00059V5.00059C3.04968 4.47591 3.4752 4.05039 3.99987 4.05039C4.52454 4.05039 4.95007 4.47591 4.95007 5.00059V6.41269C5.64171 5.56043 6.48716 4.83519 7.45007 4.27891Z" fill="#8996A9"/>
</svg>
