<svg width="24" height="24" viewBox="0 0 24 24" fill="none" xmlns="http://www.w3.org/2000/svg">
<path d="M17.7499 17.7498C18.1404 17.3593 18.7734 17.3593 19.164 17.7498L22.2069 20.7927C22.5975 21.1833 22.5975 21.8163 22.2069 22.2068C21.8164 22.5973 21.1834 22.5973 20.7929 22.2068L17.7499 19.1638C17.3594 18.7733 17.3594 18.1403 17.7499 17.7498Z" fill="#8996A9"/>
<path d="M19.5 11.9999C19.5 7.85774 16.1421 4.49988 12 4.49988C7.85786 4.49988 4.5 7.85774 4.5 11.9999C4.5 16.142 7.85786 19.4999 12 19.4999V21.4999C6.75329 21.4999 2.5 17.2466 2.5 11.9999C2.5 6.75317 6.75329 2.49988 12 2.49988C17.2467 2.49988 21.5 6.75317 21.5 11.9999C21.5 17.2466 17.2467 21.4999 12 21.4999V19.4999C16.1421 19.4999 19.5 16.142 19.5 11.9999Z" fill="#8996A9"/>
</svg>
