<svg width="28" height="28" viewBox="0 0 28 28" fill="none" xmlns="http://www.w3.org/2000/svg">
<g filter="url(#filter0_d_22109_7945)">
<path d="M19.2499 19.2499C19.6404 18.8594 20.2734 18.8594 20.664 19.2499L23.7069 22.2929C24.0975 22.6834 24.0975 23.3164 23.7069 23.7069C23.3164 24.0975 22.6834 24.0975 22.2929 23.7069L19.2499 20.664C18.8594 20.2734 18.8594 19.6404 19.2499 19.2499Z" fill="white"/>
<path d="M21 13.5C21 9.35786 17.6421 6 13.5 6C9.35786 6 6 9.35786 6 13.5C6 17.6421 9.35786 21 13.5 21V23C8.25329 23 4 18.7467 4 13.5C4 8.25329 8.25329 4 13.5 4C18.7467 4 23 8.25329 23 13.5C23 18.7467 18.7467 23 13.5 23V21C17.6421 21 21 17.6421 21 13.5Z" fill="white"/>
<path d="M12.7002 17.5V9.5C12.7002 9.05817 13.0582 8.7002 13.5 8.7002C13.9418 8.7002 14.2998 9.05817 14.2998 9.5V17.5C14.2998 17.9418 13.9418 18.2998 13.5 18.2998C13.0582 18.2998 12.7002 17.9418 12.7002 17.5Z" fill="white"/>
<path d="M9.5 12.7002H17.5C17.9418 12.7002 18.2998 13.0582 18.2998 13.5C18.2998 13.9418 17.9418 14.2998 17.5 14.2998H9.5C9.05817 14.2998 8.7002 13.9418 8.7002 13.5C8.7002 13.0582 9.05817 12.7002 9.5 12.7002Z" fill="white"/>
</g>
<defs>
<filter id="filter0_d_22109_7945" x="0" y="0" width="27.9998" height="27.9998" filterUnits="userSpaceOnUse" color-interpolation-filters="sRGB">
<feFlood flood-opacity="0" result="BackgroundImageFix"/>
<feColorMatrix in="SourceAlpha" type="matrix" values="0 0 0 0 0 0 0 0 0 0 0 0 0 0 0 0 0 0 127 0" result="hardAlpha"/>
<feOffset/>
<feGaussianBlur stdDeviation="2"/>
<feComposite in2="hardAlpha" operator="out"/>
<feColorMatrix type="matrix" values="0 0 0 0 0 0 0 0 0 0 0 0 0 0 0 0 0 0 0.2 0"/>
<feBlend mode="normal" in2="BackgroundImageFix" result="effect1_dropShadow_22109_7945"/>
<feBlend mode="normal" in="SourceGraphic" in2="effect1_dropShadow_22109_7945" result="shape"/>
</filter>
</defs>
</svg>
