<svg width="24" height="24" viewBox="0 0 24 24" fill="none" xmlns="http://www.w3.org/2000/svg">
<path d="M17.2499 17.25C17.6404 16.8595 18.2734 16.8595 18.664 17.25L21.7069 20.293C22.0975 20.6835 22.0975 21.3165 21.7069 21.7071C21.3164 22.0976 20.6834 22.0976 20.2929 21.7071L17.2499 18.6641C16.8594 18.2736 16.8594 17.6405 17.2499 17.25Z" fill="white"/>
<path d="M19 11.5001C19 7.35799 15.6421 4.00012 11.5 4.00012C7.35786 4.00012 4 7.35799 4 11.5001C4 15.6423 7.35786 19.0001 11.5 19.0001V21.0001C6.25329 21.0001 2 16.7468 2 11.5001C2 6.25342 6.25329 2.00012 11.5 2.00012C16.7467 2.00012 21 6.25342 21 11.5001C21 16.7468 16.7467 21.0001 11.5 21.0001V19.0001C15.6421 19.0001 19 15.6423 19 11.5001Z" fill="white"/>
<path d="M10.7002 15.5001V7.50012C10.7002 7.05829 11.0582 6.70032 11.5 6.70032C11.9418 6.70032 12.2998 7.05829 12.2998 7.50012V15.5001C12.2998 15.9419 11.9418 16.2999 11.5 16.2999C11.0582 16.2999 10.7002 15.9419 10.7002 15.5001Z" fill="white"/>
<path d="M7.5 10.7003H15.5C15.9418 10.7003 16.2998 11.0583 16.2998 11.5001C16.2998 11.9419 15.9418 12.2999 15.5 12.2999H7.5C7.05817 12.2999 6.7002 11.9419 6.7002 11.5001C6.7002 11.0583 7.05817 10.7003 7.5 10.7003Z" fill="white"/>
</svg>
