<svg width="24" height="24" viewBox="0 0 24 24" fill="none" xmlns="http://www.w3.org/2000/svg">
<path d="M22 11.9854C22 17.5082 17.5228 21.9854 12 21.9854C6.47715 21.9854 2 17.5082 2 11.9854C2 6.4625 6.47715 1.98535 12 1.98535C17.5228 1.98535 22 6.4625 22 11.9854Z" fill="#FF4D4D"/>
<path d="M11 12V7.5C11 6.94772 11.4477 6.5 12 6.5C12.5523 6.5 13 6.94772 13 7.5V12C13 12.5523 12.5523 13 12 13C11.4477 13 11 12.5523 11 12Z" fill="white"/>
<path d="M13.2 16.2C13.2 16.8627 12.6627 17.4 12 17.4C11.3373 17.4 10.8 16.8627 10.8 16.2C10.8 15.5373 11.3373 15 12 15C12.6627 15 13.2 15.5373 13.2 16.2Z" fill="white"/>
</svg>
