<svg width="301" height="293" viewBox="0 0 301 293" fill="none" xmlns="http://www.w3.org/2000/svg">
<path d="M139.002 3.27483C146.402 -1.09096 155.568 -1.09096 162.968 3.27483L289.358 77.6479C296.573 81.8898 301.001 89.661 301.001 98.0209V268.411C301.001 281.477 290.411 292.067 277.345 292.067L277.407 292.036H24.5938C11.5274 292.036 0.938477 281.446 0.938477 268.379V97.9906C0.938477 89.5997 5.36575 81.8586 12.5801 77.6166L139.002 3.27483ZM232.354 128.693C212.013 128.693 192.195 148.653 185.536 172.146C177.017 195.747 169.257 204.837 164.854 204.837C163.49 204.837 162.73 204.19 162.73 202.005C162.73 199.2 166.689 190.272 169.127 184.311C174.92 171.31 182.994 153.13 182.994 144.04C182.994 135.733 177.961 129.152 167.764 129.152C151.17 129.152 136.857 150.946 123.305 182.423C131.09 162.841 136.254 152.024 136.254 142.314C136.254 136.353 131.981 129.152 124.222 129.152C107.628 129.152 94.5479 151.243 80.6807 182.423L87.3906 164.567C91.6634 154.56 95.3075 146.873 95.3076 141.236C95.3076 134.978 91.6377 129.34 83.1182 129.34C68.9363 129.34 52.1067 143.043 39.4453 190.002V193.86C46.8901 169.935 59.0015 148.14 63.7725 148.14C64.847 148.14 65.4502 148.761 65.4502 150.326C65.4501 153.158 64.7161 156.907 62.1211 164.27L44.7666 215.977H72.0293C93.3413 156.745 104.902 148.14 108.415 148.14C110.093 148.14 110.853 149.246 110.853 151.431C110.853 156.448 103.539 175.41 98.2178 189.032L87.8633 215.977H115.126C120.605 200.468 125.611 188.411 129.884 179.16C141.601 152.997 149.361 148.14 151.956 148.14C153.634 148.14 154.395 149.246 154.395 151.431C154.395 154.398 149.807 166.159 143.726 182.288C138.693 195.289 135.651 199.362 135.651 204.54C135.651 212.066 139.609 218.324 151.93 218.324C167.003 218.324 176.231 203.489 183.439 183.61C183.282 185.255 183.203 186.927 183.203 188.573C183.203 208.452 194.79 218.486 210.466 218.486C227.19 218.486 240.298 205.781 250.495 181.667H246.223C238.149 196.395 231.306 202.194 223.232 202.194C215.761 202.194 210.44 197.959 210.44 186.361C210.44 184.338 210.598 182.288 210.755 179.942C231.018 177.433 253.09 166.158 253.09 146.576C253.09 135.922 245.016 128.72 232.381 128.72L232.354 128.693ZM232.224 136.866C235.422 136.866 236.497 138.916 236.497 143.447C236.497 156.313 225.225 168.371 211.829 173.064C215.027 156.125 223.39 136.866 232.224 136.866Z" fill="#6F00FF"/>
<path d="M232.381 128.72C245.016 128.72 253.09 135.922 253.09 146.576C253.09 166.158 231.018 177.433 210.754 179.941C210.597 182.288 210.44 184.338 210.44 186.361C210.44 197.959 215.761 202.194 223.232 202.194C231.306 202.194 238.148 196.395 246.222 181.668H250.495C240.298 205.781 227.191 218.486 210.466 218.486C194.79 218.486 183.203 208.452 183.203 188.573C183.203 186.927 183.282 185.255 183.439 183.61C176.23 203.489 167.003 218.324 151.93 218.324C139.609 218.324 135.651 212.066 135.651 204.541C135.651 199.362 138.692 195.289 143.725 182.288C149.807 166.158 154.394 154.398 154.394 151.431C154.394 149.246 153.634 148.14 151.956 148.14C149.361 148.14 141.602 152.995 129.884 179.159C125.611 188.411 120.604 200.468 115.125 215.977H87.8627L98.2173 189.031C103.539 175.41 110.853 156.448 110.853 151.431C110.853 149.246 110.092 148.14 108.415 148.14C104.902 148.14 93.3415 156.745 72.0294 215.977H44.7668L62.1205 164.27C64.7157 156.907 65.4497 153.157 65.4497 150.325C65.4497 148.761 64.8468 148.14 63.772 148.14C59.001 148.14 46.8901 169.934 39.4453 193.859V190.002C52.1067 143.042 68.9362 129.34 83.118 129.34C91.6376 129.34 95.3075 134.978 95.3075 141.235C95.3075 146.873 91.6638 154.56 87.3909 164.567L80.6801 182.423C94.5473 151.242 107.628 129.151 124.222 129.151C131.981 129.151 136.254 136.353 136.254 142.314C136.254 152.024 131.09 162.841 123.304 182.423C136.857 150.946 151.17 129.151 167.763 129.151C177.961 129.151 182.994 135.733 182.994 144.04C182.994 153.13 174.92 171.31 169.126 184.311C166.689 190.272 162.73 199.2 162.73 202.005C162.73 204.19 163.49 204.837 164.854 204.837C169.257 204.837 177.017 195.747 185.536 172.146C192.195 148.653 212.013 128.693 232.355 128.693L232.381 128.72ZM232.224 136.866C223.39 136.866 215.027 156.124 211.829 173.063C225.225 168.37 236.497 156.313 236.497 143.447C236.497 138.916 235.422 136.866 232.224 136.866Z" fill="white"/>
</svg>
