<svg width="300" height="300" viewBox="0 0 300 300" fill="none" xmlns="http://www.w3.org/2000/svg">
<path d="M19.999 151.652C22.067 140.835 23.101 135.427 25.1834 130.341C27.96 123.56 32.1098 117.163 37.3592 111.57C41.2963 107.376 46.1025 103.781 55.7148 96.5905L144.511 30.1682C157.214 20.6654 163.566 15.914 169.97 13.67C178.509 10.678 187.317 10.6458 194.738 13.5793C200.304 15.7795 204.871 20.491 214.005 29.9139L281.989 100.044C289.047 107.325 292.576 110.965 294.961 115.231C298.141 120.918 299.858 127.445 299.994 134.365C300.095 139.555 298.976 145.078 296.738 156.123L278.784 244.725C276.03 258.315 274.653 265.11 271.314 270.467C266.863 277.609 259.95 283.27 252.079 286.22C246.175 288.433 239.255 288.433 225.415 288.433H46.2422C29.9654 288.433 21.827 288.433 15.9068 285.822C8.01326 282.342 2.4914 275.667 0.554261 267.262C-0.898589 260.958 0.629318 252.966 3.68513 236.983L19.999 151.652Z" fill="black"/>
<path d="M159.065 173.41C156.811 157.76 155.684 149.934 157.573 145.895C160.349 139.96 166.669 136.528 173.158 137.432C177.575 138.047 183.524 143.254 195.423 153.667C197.84 155.782 199.048 156.84 200.391 157.596C202.353 158.702 204.539 159.35 206.787 159.491C208.325 159.587 209.915 159.358 213.094 158.9C228.744 156.646 236.569 155.519 240.608 157.408C246.543 160.184 249.975 166.504 249.071 172.993C248.456 177.41 243.249 183.359 232.836 195.258C230.721 197.675 229.663 198.883 228.907 200.226C227.801 202.188 227.153 204.374 227.012 206.622C226.916 208.16 227.145 209.749 227.603 212.928C229.857 228.579 230.984 236.404 229.095 240.443C226.319 246.378 219.999 249.81 213.51 248.906C209.093 248.291 203.144 243.084 191.245 232.671C188.828 230.556 187.62 229.498 186.277 228.742C184.315 227.636 182.129 226.988 179.881 226.847C178.343 226.751 176.754 226.98 173.575 227.438C157.925 229.692 150.1 230.819 146.06 228.93C140.125 226.154 136.693 219.834 137.597 213.345C138.212 208.928 143.419 202.979 153.832 191.08C155.947 188.663 157.005 187.455 157.761 186.112C158.867 184.15 159.515 181.964 159.656 179.716C159.752 178.178 159.523 176.589 159.065 173.41Z" fill="white"/>
</svg>
