<svg viewBox="0 0 112 112" fill="none" xmlns="http://www.w3.org/2000/svg">
<rect width="112" height="112" rx="56" fill="#F3F4F7"/>
<path d="M30 49.2992C30 47.7196 30.7181 46.2255 31.9516 45.2387L54.051 27.5592C55.1904 26.6477 56.8096 26.6477 57.949 27.5592L80.0484 45.2387C81.2819 46.2255 82 47.7196 82 49.2992V74.88C82 76.6031 80.6031 78 78.88 78H56H33.12C31.3969 78 30 76.6031 30 74.88V49.2992Z" fill="white"/>
<path d="M69.6348 63.2116C71.0782 63.2116 72.3036 62.204 73.747 59.6441H74.5095C72.6849 63.8379 70.3429 66.0438 67.3473 66.0438C64.5423 66.0438 62.4727 64.3009 62.4727 60.8423C62.4727 55.6681 66.8026 50.4395 71.2688 50.4395C73.5291 50.4395 74.9724 51.6922 74.9724 53.544C74.9724 56.9481 71.0237 58.9088 67.4018 59.3445C67.3745 59.753 67.3473 60.107 67.3473 60.4611C67.3473 62.4763 68.3004 63.2116 69.6348 63.2116ZM71.2416 51.8556C69.6621 51.8556 68.1643 55.2052 67.5924 58.1463C69.9889 57.3293 72.0041 55.2324 72.0041 52.9993C72.0041 52.2096 71.8135 51.8556 71.2416 51.8556Z" fill="#6F00FF"/>
<path d="M42.5815 65.6084H37.7069L40.8114 56.6216C41.2743 55.3417 41.409 54.6881 41.409 54.1979C41.409 53.9256 41.3001 53.8166 41.1094 53.8166C40.2539 53.8166 38.0881 57.6041 36.7598 61.7646V61.0917C39.0264 52.9268 42.0369 50.5487 44.5695 50.5487C46.0945 50.5487 46.7481 51.5291 46.7481 52.6184C46.7481 53.5988 46.0945 54.9332 45.332 56.6761L44.1338 59.7806C46.6119 54.3613 48.954 50.5215 51.9223 50.5215C53.3112 50.5215 54.0737 51.7742 54.0737 52.809C54.0737 54.4975 53.1478 56.3765 51.7589 59.7806C54.1826 54.3068 56.7425 50.5215 59.7109 50.5215C61.5354 50.5215 62.4341 51.6653 62.4341 53.1086C62.4341 54.6881 60.9908 57.8471 59.9559 60.1074C59.5202 61.1422 58.8122 62.6945 58.8122 63.1847C58.8122 63.5659 58.9483 63.6749 59.1934 63.6749C59.9832 63.6749 61.3696 62.0915 62.895 57.9864V58.9026C61.5473 62.8857 59.847 66.0169 56.8787 66.0169C54.6728 66.0169 53.9648 64.9276 53.9648 63.6204C53.9648 62.7217 54.5094 62.0137 55.4081 59.7534C56.4974 56.9484 57.3144 54.9059 57.3144 54.3885C57.3144 54.0073 57.1782 53.8166 56.8787 53.8166C56.4157 53.8166 55.0268 54.6608 52.9299 59.2087C52.1674 60.8154 51.2687 62.9123 50.2884 65.6084H45.4137L47.2655 60.9244C48.2187 58.5551 49.5258 55.26 49.5258 54.3885C49.5258 54.0073 49.3897 53.8166 49.0901 53.8166C48.4638 53.8166 46.3941 55.3144 42.5815 65.6084Z" fill="#6F00FF"/>
</svg>
